G04 #@! TF.GenerationSoftware,KiCad,Pcbnew,(5.0.2)-1*
G04 #@! TF.CreationDate,2019-02-15T14:43:35+01:00*
G04 #@! TF.ProjectId,test,74657374-2e6b-4696-9361-645f70636258,rev?*
G04 #@! TF.SameCoordinates,Original*
G04 #@! TF.FileFunction,Copper,L2,Bot*
G04 #@! TF.FilePolarity,Positive*
%FSLAX46Y46*%
G04 Gerber Fmt 4.6, Leading zero omitted, Abs format (unit mm)*
G04 Created by KiCad (PCBNEW (5.0.2)-1) date 15/02/2019 14:43:35*
%MOMM*%
%LPD*%
G01*
G04 APERTURE LIST*
G04 #@! TA.AperFunction,ComponentPad*
%ADD10R,1.700000X1.700000*%
G04 #@! TD*
G04 #@! TA.AperFunction,ComponentPad*
%ADD11O,1.700000X1.700000*%
G04 #@! TD*
G04 #@! TA.AperFunction,ComponentPad*
%ADD12C,1.280000*%
G04 #@! TD*
G04 #@! TA.AperFunction,ComponentPad*
%ADD13C,2.000000*%
G04 #@! TD*
G04 #@! TA.AperFunction,ComponentPad*
%ADD14O,1.500000X1.050000*%
G04 #@! TD*
G04 #@! TA.AperFunction,ComponentPad*
%ADD15R,1.500000X1.050000*%
G04 #@! TD*
G04 #@! TA.AperFunction,ComponentPad*
%ADD16R,1.730000X2.030000*%
G04 #@! TD*
G04 #@! TA.AperFunction,ComponentPad*
%ADD17O,1.730000X2.030000*%
G04 #@! TD*
G04 #@! TA.AperFunction,ComponentPad*
%ADD18R,1.800000X1.800000*%
G04 #@! TD*
G04 #@! TA.AperFunction,ComponentPad*
%ADD19C,1.800000*%
G04 #@! TD*
G04 #@! TA.AperFunction,ComponentPad*
%ADD20O,1.050000X1.500000*%
G04 #@! TD*
G04 #@! TA.AperFunction,ComponentPad*
%ADD21R,1.050000X1.500000*%
G04 #@! TD*
G04 #@! TA.AperFunction,ComponentPad*
%ADD22R,1.600000X1.600000*%
G04 #@! TD*
G04 #@! TA.AperFunction,ComponentPad*
%ADD23C,1.600000*%
G04 #@! TD*
G04 #@! TA.AperFunction,ViaPad*
%ADD24C,0.800000*%
G04 #@! TD*
G04 #@! TA.AperFunction,Conductor*
%ADD25C,0.400000*%
G04 #@! TD*
G04 #@! TA.AperFunction,Conductor*
%ADD26C,0.250000*%
G04 #@! TD*
G04 #@! TA.AperFunction,Conductor*
%ADD27C,0.254000*%
G04 #@! TD*
G04 APERTURE END LIST*
D10*
G04 #@! TO.P,J5,1*
G04 #@! TO.N,/GPIO1*
X167000000Y-82000000D03*
D11*
G04 #@! TO.P,J5,2*
G04 #@! TO.N,/GPIO2*
X167000000Y-79460000D03*
G04 #@! TO.P,J5,3*
G04 #@! TO.N,/GPIO3*
X167000000Y-76920000D03*
G04 #@! TO.P,J5,4*
G04 #@! TO.N,/GPIO4*
X167000000Y-74380000D03*
G04 #@! TO.P,J5,5*
G04 #@! TO.N,/GPIO5*
X167000000Y-71840000D03*
G04 #@! TO.P,J5,6*
G04 #@! TO.N,/GPIO6*
X167000000Y-69300000D03*
G04 #@! TD*
D12*
G04 #@! TO.P,DS1,1*
G04 #@! TO.N,Net-(DS1-Pad1)*
X132490000Y-130050000D03*
G04 #@! TO.P,DS1,2*
G04 #@! TO.N,Net-(DS1-Pad2)*
X135030000Y-130050000D03*
G04 #@! TO.P,DS1,14*
G04 #@! TO.N,Net-(DS1-Pad14)*
X165510000Y-130050000D03*
G04 #@! TO.P,DS1,13*
G04 #@! TO.N,Net-(DS1-Pad13)*
X162970000Y-130050000D03*
G04 #@! TO.P,DS1,28*
G04 #@! TO.N,/SS*
X132490000Y-91950000D03*
G04 #@! TO.P,DS1,27*
G04 #@! TO.N,Net-(DS1-Pad27)*
X135030000Y-91950000D03*
G04 #@! TO.P,DS1,26*
G04 #@! TO.N,/A0*
X137570000Y-91950000D03*
G04 #@! TO.P,DS1,25*
G04 #@! TO.N,/CLK*
X140110000Y-91950000D03*
G04 #@! TO.P,DS1,24*
G04 #@! TO.N,/MOSI*
X142650000Y-91950000D03*
G04 #@! TO.P,DS1,23*
G04 #@! TO.N,+3V3*
X145190000Y-91950000D03*
G04 #@! TO.P,DS1,22*
X147730000Y-91950000D03*
G04 #@! TO.P,DS1,21*
G04 #@! TO.N,GND*
X150270000Y-91950000D03*
G04 #@! TO.P,DS1,20*
X152810000Y-91950000D03*
G04 #@! TO.P,DS1,19*
G04 #@! TO.N,Net-(C16-Pad1)*
X155350000Y-91950000D03*
G04 #@! TO.P,DS1,18*
G04 #@! TO.N,Net-(C17-Pad2)*
X157890000Y-91950000D03*
G04 #@! TO.P,DS1,17*
G04 #@! TO.N,Net-(C17-Pad1)*
X160430000Y-91950000D03*
G04 #@! TO.P,DS1,16*
G04 #@! TO.N,Net-(C16-Pad2)*
X162970000Y-91950000D03*
G04 #@! TO.P,DS1,15*
G04 #@! TO.N,Net-(C15-Pad2)*
X165510000Y-91950000D03*
G04 #@! TD*
D13*
G04 #@! TO.P,SW2,2*
G04 #@! TO.N,/NRST*
X119525001Y-114025001D03*
G04 #@! TO.P,SW2,1*
G04 #@! TO.N,GND*
X119525001Y-109525001D03*
G04 #@! TO.P,SW2,2*
G04 #@! TO.N,/NRST*
X126025001Y-114025001D03*
G04 #@! TO.P,SW2,1*
G04 #@! TO.N,GND*
X126025001Y-109525001D03*
G04 #@! TD*
D14*
G04 #@! TO.P,Q2,2*
G04 #@! TO.N,Net-(Q2-Pad2)*
X135000000Y-57730000D03*
G04 #@! TO.P,Q2,3*
G04 #@! TO.N,GND*
X135000000Y-56460000D03*
D15*
G04 #@! TO.P,Q2,1*
G04 #@! TO.N,+5V*
X135000000Y-59000000D03*
G04 #@! TD*
D13*
G04 #@! TO.P,SW1,2*
G04 #@! TO.N,Net-(C19-Pad2)*
X126000000Y-100500000D03*
G04 #@! TO.P,SW1,1*
G04 #@! TO.N,GND*
X126000000Y-105000000D03*
G04 #@! TO.P,SW1,2*
G04 #@! TO.N,Net-(C19-Pad2)*
X119500000Y-100500000D03*
G04 #@! TO.P,SW1,1*
G04 #@! TO.N,GND*
X119500000Y-105000000D03*
G04 #@! TD*
D16*
G04 #@! TO.P,pin_relay1,1*
G04 #@! TO.N,+5V*
X155000000Y-53000000D03*
D17*
G04 #@! TO.P,pin_relay1,2*
G04 #@! TO.N,GND*
X157540000Y-53000000D03*
G04 #@! TO.P,pin_relay1,3*
X160080000Y-53000000D03*
G04 #@! TO.P,pin_relay1,4*
X162620000Y-53000000D03*
G04 #@! TD*
D18*
G04 #@! TO.P,D1,1*
G04 #@! TO.N,Net-(D1-Pad1)*
X162000000Y-63000000D03*
D19*
G04 #@! TO.P,D1,2*
G04 #@! TO.N,+5V*
X159460000Y-63000000D03*
G04 #@! TD*
G04 #@! TO.P,D2,2*
G04 #@! TO.N,+3V3*
X137540000Y-86000000D03*
D18*
G04 #@! TO.P,D2,1*
G04 #@! TO.N,Net-(D2-Pad1)*
X135000000Y-86000000D03*
G04 #@! TD*
G04 #@! TO.P,D3,1*
G04 #@! TO.N,Net-(D3-Pad1)*
X130000000Y-86000000D03*
D19*
G04 #@! TO.P,D3,2*
G04 #@! TO.N,+3V3*
X132540000Y-86000000D03*
G04 #@! TD*
D20*
G04 #@! TO.P,Q1,2*
G04 #@! TO.N,Net-(Q1-Pad2)*
X160730000Y-66000000D03*
G04 #@! TO.P,Q1,3*
G04 #@! TO.N,GND*
X159460000Y-66000000D03*
D21*
G04 #@! TO.P,Q1,1*
G04 #@! TO.N,Net-(Q1-Pad1)*
X162000000Y-66000000D03*
G04 #@! TD*
D22*
G04 #@! TO.P,CP1,1*
G04 #@! TO.N,+5V*
X155000000Y-58000000D03*
D23*
G04 #@! TO.P,CP1,2*
G04 #@! TO.N,GND*
X155000000Y-60000000D03*
G04 #@! TD*
D10*
G04 #@! TO.P,J1,1*
G04 #@! TO.N,+3V3*
X145000000Y-86000000D03*
D11*
G04 #@! TO.P,J1,2*
G04 #@! TO.N,/SWCLK*
X147540000Y-86000000D03*
G04 #@! TO.P,J1,3*
G04 #@! TO.N,GND*
X150080000Y-86000000D03*
G04 #@! TO.P,J1,4*
G04 #@! TO.N,/SWDIO*
X152620000Y-86000000D03*
G04 #@! TO.P,J1,5*
G04 #@! TO.N,/NRST*
X155160000Y-86000000D03*
G04 #@! TO.P,J1,6*
G04 #@! TO.N,/SWO*
X157700000Y-86000000D03*
G04 #@! TD*
D23*
G04 #@! TO.P,CP2,2*
G04 #@! TO.N,GND*
X158000000Y-75000000D03*
D22*
G04 #@! TO.P,CP2,1*
G04 #@! TO.N,+3V3*
X158000000Y-77000000D03*
G04 #@! TD*
D24*
G04 #@! TO.N,*
X159000000Y-58000000D03*
G04 #@! TO.N,GND*
X145980697Y-83924472D03*
X150000000Y-89000000D03*
X141000000Y-88000000D03*
X162000000Y-51000000D03*
X138000000Y-55000000D03*
X150000000Y-72000000D03*
X112000000Y-89000000D03*
X168000000Y-62000000D03*
X152000000Y-67000000D03*
G04 #@! TO.N,+3V3*
X154440000Y-67940000D03*
G04 #@! TO.N,/SWCLK*
X146203554Y-84796446D03*
X152000000Y-81000000D03*
G04 #@! TO.N,/NRST*
X146000000Y-69000000D03*
X154000000Y-82000000D03*
G04 #@! TO.N,/SWO*
X150000000Y-77000000D03*
G04 #@! TO.N,Net-(R6-Pad1)*
X146000000Y-80000000D03*
X157000000Y-69000000D03*
G04 #@! TO.N,Net-(R10-Pad2)*
X133000000Y-81000000D03*
X141000000Y-70000000D03*
G04 #@! TO.N,Net-(R9-Pad2)*
X133000000Y-79000000D03*
X139000000Y-72000000D03*
G04 #@! TO.N,Net-(D2-Pad1)*
X133000000Y-73000000D03*
X134000000Y-84000000D03*
G04 #@! TO.N,/A0*
X139000000Y-77000000D03*
X138000000Y-89000000D03*
G04 #@! TO.N,/SS*
X133000000Y-90000000D03*
X142000000Y-80000000D03*
G04 #@! TO.N,Net-(C21-Pad1)*
X145000000Y-59000000D03*
X142000000Y-76000000D03*
G04 #@! TO.N,Net-(R18-Pad1)*
X149000000Y-67000000D03*
X139000000Y-59000000D03*
G04 #@! TO.N,Net-(C19-Pad2)*
X142000000Y-78000000D03*
X126000000Y-98000000D03*
G04 #@! TO.N,/GPIO1*
X147000000Y-74000000D03*
G04 #@! TO.N,/GPIO2*
X147000000Y-75000000D03*
G04 #@! TO.N,/GPIO3*
X148000000Y-76000000D03*
G04 #@! TD*
D25*
G04 #@! TO.N,GND*
X143849999Y-84909999D02*
X143849999Y-87849999D01*
X145980697Y-83924472D02*
X144835526Y-83924472D01*
X144835526Y-83924472D02*
X143849999Y-84909999D01*
X143849999Y-87849999D02*
X145000000Y-89000000D01*
X145000000Y-89000000D02*
X146171202Y-89000000D01*
X146171202Y-89000000D02*
X150000000Y-89000000D01*
X141000000Y-79963998D02*
X141000000Y-88000000D01*
X141663999Y-79299999D02*
X141000000Y-79963998D01*
X142336001Y-79299999D02*
X141663999Y-79299999D01*
X144835526Y-83924472D02*
X144835526Y-81799524D01*
X144835526Y-81799524D02*
X142336001Y-79299999D01*
X160140002Y-55000000D02*
X138000000Y-55000000D01*
X162000000Y-51000000D02*
X162000000Y-53140002D01*
X162000000Y-53140002D02*
X160140002Y-55000000D01*
D26*
G04 #@! TO.N,/SWCLK*
X146203554Y-84796446D02*
X148203554Y-84796446D01*
X148203554Y-84796446D02*
X152000000Y-81000000D01*
G04 #@! TO.N,/NRST*
X152000000Y-80000000D02*
X154000000Y-82000000D01*
X149000000Y-80000000D02*
X152000000Y-80000000D01*
X146000000Y-69000000D02*
X146000000Y-77000000D01*
X146000000Y-77000000D02*
X149000000Y-80000000D01*
G04 #@! TO.N,/SWO*
X157700000Y-84700000D02*
X157700000Y-86000000D01*
X150000000Y-77000000D02*
X157700000Y-84700000D01*
G04 #@! TO.N,Net-(R6-Pad1)*
X146000000Y-80000000D02*
X145424999Y-79424999D01*
X145600001Y-79600001D02*
X146000000Y-80000000D01*
X145374999Y-68699999D02*
X145374999Y-79374999D01*
X145699999Y-68374999D02*
X145374999Y-68699999D01*
X150374999Y-68374999D02*
X145699999Y-68374999D01*
X145374999Y-79374999D02*
X145600001Y-79600001D01*
X151000000Y-69000000D02*
X150374999Y-68374999D01*
X157000000Y-69000000D02*
X151000000Y-69000000D01*
G04 #@! TO.N,Net-(R10-Pad2)*
X133000000Y-81000000D02*
X141000000Y-73000000D01*
X141000000Y-73000000D02*
X141000000Y-70000000D01*
G04 #@! TO.N,Net-(R9-Pad2)*
X133000000Y-79000000D02*
X139000000Y-73000000D01*
X139000000Y-73000000D02*
X139000000Y-72000000D01*
G04 #@! TO.N,Net-(D2-Pad1)*
X134000000Y-73000000D02*
X133000000Y-73000000D01*
X135501001Y-74501001D02*
X134000000Y-73000000D01*
X135501001Y-75573997D02*
X135501001Y-74501001D01*
X132374999Y-78699999D02*
X135501001Y-75573997D01*
X134000000Y-84000000D02*
X132374999Y-82374999D01*
X132374999Y-82374999D02*
X132374999Y-78699999D01*
G04 #@! TO.N,/A0*
X139000000Y-77000000D02*
X139000000Y-88000000D01*
X139000000Y-88000000D02*
X138000000Y-89000000D01*
G04 #@! TO.N,/SS*
X133000000Y-90000000D02*
X134000000Y-91000000D01*
X134000000Y-91000000D02*
X140000000Y-91000000D01*
X140000000Y-91000000D02*
X142000000Y-89000000D01*
X142000000Y-89000000D02*
X142000000Y-80000000D01*
G04 #@! TO.N,Net-(C21-Pad1)*
X145000000Y-73000000D02*
X145000000Y-59000000D01*
X142000000Y-76000000D02*
X145000000Y-73000000D01*
G04 #@! TO.N,Net-(R18-Pad1)*
X139575001Y-58424999D02*
X139000000Y-59000000D01*
X139625001Y-58374999D02*
X139575001Y-58424999D01*
X145300001Y-58374999D02*
X139625001Y-58374999D01*
X149000000Y-62074998D02*
X145300001Y-58374999D01*
X149000000Y-67000000D02*
X149000000Y-62074998D01*
G04 #@! TO.N,Net-(C19-Pad2)*
X126000000Y-94131002D02*
X126000000Y-98000000D01*
X131999999Y-84874999D02*
X131131002Y-85743996D01*
X131131002Y-85743996D02*
X131131002Y-89000000D01*
X134125001Y-84874999D02*
X131999999Y-84874999D01*
X134625001Y-80449997D02*
X134625001Y-84374999D01*
X138699999Y-76374999D02*
X134625001Y-80449997D01*
X140374999Y-76374999D02*
X138699999Y-76374999D01*
X142000000Y-78000000D02*
X140374999Y-76374999D01*
X134625001Y-84374999D02*
X134125001Y-84874999D01*
X131131002Y-89000000D02*
X126000000Y-94131002D01*
G04 #@! TO.N,/GPIO1*
X147399999Y-73600001D02*
X164628999Y-73600001D01*
X147000000Y-74000000D02*
X147399999Y-73600001D01*
X165229000Y-73000000D02*
X168000000Y-73000000D01*
X164628999Y-73600001D02*
X165229000Y-73000000D01*
X168000000Y-73000000D02*
X169000000Y-74000000D01*
X168100000Y-82000000D02*
X167000000Y-82000000D01*
X169000000Y-81100000D02*
X168100000Y-82000000D01*
X169000000Y-74000000D02*
X169000000Y-81100000D01*
G04 #@! TO.N,/GPIO2*
X166873997Y-75844999D02*
X167844999Y-75844999D01*
X165003997Y-73974999D02*
X166873997Y-75844999D01*
X148950003Y-73974999D02*
X165003997Y-73974999D01*
X147000000Y-75000000D02*
X147925002Y-75000000D01*
X147925002Y-75000000D02*
X148950003Y-73974999D01*
X167849999Y-78610001D02*
X167000000Y-79460000D01*
X168075001Y-78384999D02*
X167849999Y-78610001D01*
X168075001Y-76075001D02*
X168075001Y-78384999D01*
X167844999Y-75844999D02*
X168075001Y-76075001D01*
G04 #@! TO.N,/GPIO3*
X154994998Y-76000000D02*
X157019999Y-78025001D01*
X148000000Y-76000000D02*
X154994998Y-76000000D01*
X165894999Y-78025001D02*
X167000000Y-76920000D01*
X157019999Y-78025001D02*
X165894999Y-78025001D01*
G04 #@! TD*
D27*
G04 #@! TO.N,GND*
G36*
X121865000Y-50924234D02*
X121865000Y-51375766D01*
X122037793Y-51792926D01*
X122357074Y-52112207D01*
X122774234Y-52285000D01*
X123225766Y-52285000D01*
X123642926Y-52112207D01*
X123962207Y-51792926D01*
X124135000Y-51375766D01*
X124135000Y-50924234D01*
X124056617Y-50735000D01*
X127943383Y-50735000D01*
X127865000Y-50924234D01*
X127865000Y-51375766D01*
X128037793Y-51792926D01*
X128357074Y-52112207D01*
X128774234Y-52285000D01*
X129225766Y-52285000D01*
X129642926Y-52112207D01*
X129770133Y-51985000D01*
X153487560Y-51985000D01*
X153487560Y-54015000D01*
X153536843Y-54262765D01*
X153677191Y-54472809D01*
X153887235Y-54613157D01*
X154135000Y-54662440D01*
X155865000Y-54662440D01*
X156112765Y-54613157D01*
X156322809Y-54472809D01*
X156463157Y-54262765D01*
X156480787Y-54174130D01*
X156639143Y-54350793D01*
X157167240Y-54604131D01*
X157180754Y-54606346D01*
X157413000Y-54485224D01*
X157413000Y-53127000D01*
X157667000Y-53127000D01*
X157667000Y-54485224D01*
X157899246Y-54606346D01*
X157912760Y-54604131D01*
X158440857Y-54350793D01*
X158810000Y-53938973D01*
X159179143Y-54350793D01*
X159707240Y-54604131D01*
X159720754Y-54606346D01*
X159953000Y-54485224D01*
X159953000Y-53127000D01*
X160207000Y-53127000D01*
X160207000Y-54485224D01*
X160439246Y-54606346D01*
X160452760Y-54604131D01*
X160980857Y-54350793D01*
X161350000Y-53938973D01*
X161719143Y-54350793D01*
X162247240Y-54604131D01*
X162260754Y-54606346D01*
X162493000Y-54485224D01*
X162493000Y-53127000D01*
X162747000Y-53127000D01*
X162747000Y-54485224D01*
X162979246Y-54606346D01*
X162992760Y-54604131D01*
X163520857Y-54350793D01*
X163911807Y-53914645D01*
X164106091Y-53362087D01*
X163962222Y-53127000D01*
X162747000Y-53127000D01*
X162493000Y-53127000D01*
X160207000Y-53127000D01*
X159953000Y-53127000D01*
X157667000Y-53127000D01*
X157413000Y-53127000D01*
X157393000Y-53127000D01*
X157393000Y-52873000D01*
X157413000Y-52873000D01*
X157413000Y-51514776D01*
X157180754Y-51393654D01*
X157167240Y-51395869D01*
X156639143Y-51649207D01*
X156480787Y-51825870D01*
X156463157Y-51737235D01*
X156322809Y-51527191D01*
X156112765Y-51386843D01*
X155865000Y-51337560D01*
X154135000Y-51337560D01*
X153887235Y-51386843D01*
X153677191Y-51527191D01*
X153536843Y-51737235D01*
X153487560Y-51985000D01*
X129770133Y-51985000D01*
X129962207Y-51792926D01*
X130135000Y-51375766D01*
X130135000Y-50924234D01*
X130056617Y-50735000D01*
X158895000Y-50735000D01*
X158895000Y-51075711D01*
X159075405Y-51511249D01*
X159202269Y-51638113D01*
X159179143Y-51649207D01*
X158810000Y-52061027D01*
X158440857Y-51649207D01*
X157912760Y-51395869D01*
X157899246Y-51393654D01*
X157667000Y-51514776D01*
X157667000Y-52873000D01*
X159953000Y-52873000D01*
X159953000Y-52853000D01*
X160207000Y-52853000D01*
X160207000Y-52873000D01*
X162493000Y-52873000D01*
X162493000Y-51514776D01*
X162747000Y-51514776D01*
X162747000Y-52873000D01*
X163962222Y-52873000D01*
X164106091Y-52637913D01*
X163911807Y-52085355D01*
X163520857Y-51649207D01*
X162992760Y-51395869D01*
X162979246Y-51393654D01*
X162747000Y-51514776D01*
X162493000Y-51514776D01*
X162260754Y-51393654D01*
X162247240Y-51395869D01*
X161719143Y-51649207D01*
X161350000Y-52061027D01*
X160980857Y-51649207D01*
X160957731Y-51638113D01*
X161084595Y-51511249D01*
X161265000Y-51075711D01*
X161265000Y-50735000D01*
X169265001Y-50735000D01*
X169265001Y-73190199D01*
X168590331Y-72515530D01*
X168547929Y-72452071D01*
X168410597Y-72360308D01*
X168514092Y-71840000D01*
X168398839Y-71260582D01*
X168070625Y-70769375D01*
X167772239Y-70570000D01*
X168070625Y-70370625D01*
X168398839Y-69879418D01*
X168514092Y-69300000D01*
X168398839Y-68720582D01*
X168070625Y-68229375D01*
X167579418Y-67901161D01*
X167146256Y-67815000D01*
X166853744Y-67815000D01*
X166420582Y-67901161D01*
X165929375Y-68229375D01*
X165601161Y-68720582D01*
X165485908Y-69300000D01*
X165601161Y-69879418D01*
X165929375Y-70370625D01*
X166227761Y-70570000D01*
X165929375Y-70769375D01*
X165601161Y-71260582D01*
X165485908Y-71840000D01*
X165565473Y-72240000D01*
X165303848Y-72240000D01*
X165229000Y-72225112D01*
X165154152Y-72240000D01*
X165154148Y-72240000D01*
X164932463Y-72284096D01*
X164681071Y-72452071D01*
X164638671Y-72515527D01*
X164314198Y-72840001D01*
X147474845Y-72840001D01*
X147399998Y-72825113D01*
X147325151Y-72840001D01*
X147325147Y-72840001D01*
X147103462Y-72884097D01*
X146982382Y-72965000D01*
X146794126Y-72965000D01*
X146760000Y-72979135D01*
X146760000Y-69703711D01*
X146877431Y-69586280D01*
X147035000Y-69205874D01*
X147035000Y-69134999D01*
X150060198Y-69134999D01*
X150409671Y-69484473D01*
X150452071Y-69547929D01*
X150703463Y-69715904D01*
X150925148Y-69760000D01*
X150925153Y-69760000D01*
X151000000Y-69774888D01*
X151074847Y-69760000D01*
X156296289Y-69760000D01*
X156413720Y-69877431D01*
X156794126Y-70035000D01*
X157205874Y-70035000D01*
X157586280Y-69877431D01*
X157877431Y-69586280D01*
X158035000Y-69205874D01*
X158035000Y-68794126D01*
X157877431Y-68413720D01*
X157586280Y-68122569D01*
X157205874Y-67965000D01*
X156794126Y-67965000D01*
X156413720Y-68122569D01*
X156296289Y-68240000D01*
X155436012Y-68240000D01*
X155475000Y-68145874D01*
X155475000Y-67734126D01*
X155317431Y-67353720D01*
X155026280Y-67062569D01*
X154645874Y-66905000D01*
X154234126Y-66905000D01*
X153853720Y-67062569D01*
X153562569Y-67353720D01*
X153405000Y-67734126D01*
X153405000Y-68145874D01*
X153443988Y-68240000D01*
X151314802Y-68240000D01*
X150965330Y-67890529D01*
X150922928Y-67827070D01*
X150671536Y-67659095D01*
X150449851Y-67614999D01*
X150449846Y-67614999D01*
X150374999Y-67600111D01*
X150300152Y-67614999D01*
X149848712Y-67614999D01*
X149877431Y-67586280D01*
X150035000Y-67205874D01*
X150035000Y-66794126D01*
X149877431Y-66413720D01*
X149774217Y-66310506D01*
X158293674Y-66310506D01*
X158415177Y-66750331D01*
X158695745Y-67110179D01*
X159092664Y-67335266D01*
X159154190Y-67343964D01*
X159333000Y-67218163D01*
X159333000Y-66127000D01*
X158453407Y-66127000D01*
X158293674Y-66310506D01*
X149774217Y-66310506D01*
X149760000Y-66296289D01*
X149760000Y-65689494D01*
X158293674Y-65689494D01*
X158453407Y-65873000D01*
X159333000Y-65873000D01*
X159333000Y-65660754D01*
X159570000Y-65660754D01*
X159570000Y-66339245D01*
X159587000Y-66424709D01*
X159587000Y-67218163D01*
X159765810Y-67343964D01*
X159827336Y-67335266D01*
X160085004Y-67189146D01*
X160277391Y-67317695D01*
X160730000Y-67407725D01*
X161181866Y-67317842D01*
X161227235Y-67348157D01*
X161475000Y-67397440D01*
X162525000Y-67397440D01*
X162772765Y-67348157D01*
X162982809Y-67207809D01*
X163123157Y-66997765D01*
X163172440Y-66750000D01*
X163172440Y-65250000D01*
X163123157Y-65002235D01*
X162982809Y-64792191D01*
X162772765Y-64651843D01*
X162525000Y-64602560D01*
X161475000Y-64602560D01*
X161227235Y-64651843D01*
X161181867Y-64682157D01*
X160730000Y-64592275D01*
X160277392Y-64682305D01*
X160085004Y-64810854D01*
X159827336Y-64664734D01*
X159765810Y-64656036D01*
X159587000Y-64781837D01*
X159587000Y-65575290D01*
X159570000Y-65660754D01*
X159333000Y-65660754D01*
X159333000Y-64781837D01*
X159154190Y-64656036D01*
X159092664Y-64664734D01*
X158695745Y-64889821D01*
X158415177Y-65249669D01*
X158293674Y-65689494D01*
X149760000Y-65689494D01*
X149760000Y-62694670D01*
X157925000Y-62694670D01*
X157925000Y-63305330D01*
X158158690Y-63869507D01*
X158590493Y-64301310D01*
X159154670Y-64535000D01*
X159765330Y-64535000D01*
X160329507Y-64301310D01*
X160498725Y-64132092D01*
X160501843Y-64147765D01*
X160642191Y-64357809D01*
X160852235Y-64498157D01*
X161100000Y-64547440D01*
X162900000Y-64547440D01*
X163147765Y-64498157D01*
X163357809Y-64357809D01*
X163498157Y-64147765D01*
X163547440Y-63900000D01*
X163547440Y-62100000D01*
X163498157Y-61852235D01*
X163357809Y-61642191D01*
X163147765Y-61501843D01*
X162900000Y-61452560D01*
X161100000Y-61452560D01*
X160852235Y-61501843D01*
X160642191Y-61642191D01*
X160501843Y-61852235D01*
X160498725Y-61867908D01*
X160329507Y-61698690D01*
X159765330Y-61465000D01*
X159154670Y-61465000D01*
X158590493Y-61698690D01*
X158158690Y-62130493D01*
X157925000Y-62694670D01*
X149760000Y-62694670D01*
X149760000Y-62149846D01*
X149774888Y-62074998D01*
X149760000Y-62000150D01*
X149760000Y-62000146D01*
X149715904Y-61778461D01*
X149715904Y-61778460D01*
X149590329Y-61590525D01*
X149547929Y-61527069D01*
X149484473Y-61484669D01*
X149007549Y-61007745D01*
X154171861Y-61007745D01*
X154245995Y-61253864D01*
X154783223Y-61446965D01*
X155353454Y-61419778D01*
X155754005Y-61253864D01*
X155828139Y-61007745D01*
X155000000Y-60179605D01*
X154171861Y-61007745D01*
X149007549Y-61007745D01*
X145890332Y-57890529D01*
X145847930Y-57827070D01*
X145596538Y-57659095D01*
X145374853Y-57614999D01*
X145374848Y-57614999D01*
X145300001Y-57600111D01*
X145225154Y-57614999D01*
X139699849Y-57614999D01*
X139625001Y-57600111D01*
X139550153Y-57614999D01*
X139550149Y-57614999D01*
X139328464Y-57659095D01*
X139077072Y-57827070D01*
X139034672Y-57890526D01*
X138960198Y-57965000D01*
X138794126Y-57965000D01*
X138413720Y-58122569D01*
X138122569Y-58413720D01*
X137965000Y-58794126D01*
X137965000Y-59205874D01*
X138122569Y-59586280D01*
X138413720Y-59877431D01*
X138794126Y-60035000D01*
X139205874Y-60035000D01*
X139586280Y-59877431D01*
X139877431Y-59586280D01*
X140035000Y-59205874D01*
X140035000Y-59134999D01*
X143965000Y-59134999D01*
X143965000Y-59205874D01*
X144122569Y-59586280D01*
X144240001Y-59703712D01*
X144240000Y-72685198D01*
X141960199Y-74965000D01*
X141794126Y-74965000D01*
X141413720Y-75122569D01*
X141122569Y-75413720D01*
X140965000Y-75794126D01*
X140965000Y-75890035D01*
X140922928Y-75827070D01*
X140671536Y-75659095D01*
X140449851Y-75614999D01*
X140449846Y-75614999D01*
X140374999Y-75600111D01*
X140300152Y-75614999D01*
X139459803Y-75614999D01*
X141484476Y-73590327D01*
X141547929Y-73547929D01*
X141590327Y-73484476D01*
X141590329Y-73484474D01*
X141674102Y-73359098D01*
X141715904Y-73296537D01*
X141760000Y-73074852D01*
X141760000Y-73074848D01*
X141774888Y-73000001D01*
X141760000Y-72925154D01*
X141760000Y-70703711D01*
X141877431Y-70586280D01*
X142035000Y-70205874D01*
X142035000Y-69794126D01*
X141877431Y-69413720D01*
X141586280Y-69122569D01*
X141205874Y-68965000D01*
X140794126Y-68965000D01*
X140413720Y-69122569D01*
X140122569Y-69413720D01*
X139965000Y-69794126D01*
X139965000Y-70205874D01*
X140122569Y-70586280D01*
X140240001Y-70703712D01*
X140240000Y-72685197D01*
X139737567Y-73187630D01*
X139760000Y-73074852D01*
X139760000Y-73074848D01*
X139774888Y-73000001D01*
X139760000Y-72925154D01*
X139760000Y-72703711D01*
X139877431Y-72586280D01*
X140035000Y-72205874D01*
X140035000Y-71794126D01*
X139877431Y-71413720D01*
X139586280Y-71122569D01*
X139205874Y-70965000D01*
X138794126Y-70965000D01*
X138413720Y-71122569D01*
X138122569Y-71413720D01*
X137965000Y-71794126D01*
X137965000Y-72205874D01*
X138122569Y-72586280D01*
X138230743Y-72694454D01*
X136261001Y-74664197D01*
X136261001Y-74575848D01*
X136275889Y-74501001D01*
X136261001Y-74426154D01*
X136261001Y-74426149D01*
X136216905Y-74204464D01*
X136048930Y-73953072D01*
X135985474Y-73910672D01*
X134590331Y-72515530D01*
X134547929Y-72452071D01*
X134296537Y-72284096D01*
X134074852Y-72240000D01*
X134074847Y-72240000D01*
X134000000Y-72225112D01*
X133925153Y-72240000D01*
X133703711Y-72240000D01*
X133586280Y-72122569D01*
X133205874Y-71965000D01*
X132794126Y-71965000D01*
X132413720Y-72122569D01*
X132122569Y-72413720D01*
X131965000Y-72794126D01*
X131965000Y-73205874D01*
X132122569Y-73586280D01*
X132413720Y-73877431D01*
X132794126Y-74035000D01*
X133205874Y-74035000D01*
X133586280Y-73877431D01*
X133694455Y-73769256D01*
X134741002Y-74815804D01*
X134741001Y-75259194D01*
X131890527Y-78109670D01*
X131827071Y-78152070D01*
X131784671Y-78215526D01*
X131784670Y-78215527D01*
X131659096Y-78403462D01*
X131600111Y-78699999D01*
X131615000Y-78774851D01*
X131614999Y-82300152D01*
X131600111Y-82374999D01*
X131614999Y-82449846D01*
X131614999Y-82449850D01*
X131659095Y-82671535D01*
X131827070Y-82922928D01*
X131890529Y-82965330D01*
X132965000Y-84039802D01*
X132965000Y-84114999D01*
X132074845Y-84114999D01*
X131999998Y-84100111D01*
X131925151Y-84114999D01*
X131925147Y-84114999D01*
X131703462Y-84159095D01*
X131703460Y-84159096D01*
X131703461Y-84159096D01*
X131515525Y-84284670D01*
X131515523Y-84284672D01*
X131452070Y-84327070D01*
X131409672Y-84390524D01*
X131238035Y-84562160D01*
X131147765Y-84501843D01*
X130900000Y-84452560D01*
X129100000Y-84452560D01*
X128852235Y-84501843D01*
X128642191Y-84642191D01*
X128501843Y-84852235D01*
X128452560Y-85100000D01*
X128452560Y-86900000D01*
X128501843Y-87147765D01*
X128642191Y-87357809D01*
X128852235Y-87498157D01*
X129100000Y-87547440D01*
X130371003Y-87547440D01*
X130371003Y-88685197D01*
X125515530Y-93540671D01*
X125452071Y-93583073D01*
X125284096Y-93834466D01*
X125240000Y-94056151D01*
X125240000Y-94056155D01*
X125225112Y-94131002D01*
X125240000Y-94205849D01*
X125240001Y-97296288D01*
X125122569Y-97413720D01*
X124965000Y-97794126D01*
X124965000Y-98205874D01*
X125122569Y-98586280D01*
X125413720Y-98877431D01*
X125529244Y-98925282D01*
X125073847Y-99113914D01*
X124613914Y-99573847D01*
X124365000Y-100174778D01*
X124365000Y-100825222D01*
X124613914Y-101426153D01*
X125073847Y-101886086D01*
X125674778Y-102135000D01*
X126325222Y-102135000D01*
X126926153Y-101886086D01*
X127386086Y-101426153D01*
X127635000Y-100825222D01*
X127635000Y-100174778D01*
X127386086Y-99573847D01*
X126926153Y-99113914D01*
X126470756Y-98925282D01*
X126586280Y-98877431D01*
X126877431Y-98586280D01*
X127035000Y-98205874D01*
X127035000Y-97794126D01*
X126877431Y-97413720D01*
X126760000Y-97296289D01*
X126760000Y-94445803D01*
X131615475Y-89590329D01*
X131678931Y-89547929D01*
X131846906Y-89296537D01*
X131891002Y-89074852D01*
X131891002Y-89074848D01*
X131905890Y-89000000D01*
X131891002Y-88925152D01*
X131891002Y-87392648D01*
X132234670Y-87535000D01*
X132845330Y-87535000D01*
X133409507Y-87301310D01*
X133526360Y-87184457D01*
X133642191Y-87357809D01*
X133852235Y-87498157D01*
X134100000Y-87547440D01*
X135900000Y-87547440D01*
X136147765Y-87498157D01*
X136357809Y-87357809D01*
X136498157Y-87147765D01*
X136501275Y-87132092D01*
X136670493Y-87301310D01*
X137234670Y-87535000D01*
X137845330Y-87535000D01*
X138240001Y-87371522D01*
X138240001Y-87685197D01*
X137960199Y-87965000D01*
X137794126Y-87965000D01*
X137413720Y-88122569D01*
X137122569Y-88413720D01*
X136965000Y-88794126D01*
X136965000Y-89205874D01*
X137122569Y-89586280D01*
X137413720Y-89877431D01*
X137794126Y-90035000D01*
X138205874Y-90035000D01*
X138586280Y-89877431D01*
X138877431Y-89586280D01*
X139035000Y-89205874D01*
X139035000Y-89039801D01*
X139484473Y-88590329D01*
X139547929Y-88547929D01*
X139715904Y-88296537D01*
X139760000Y-88074852D01*
X139760000Y-88074848D01*
X139774888Y-88000000D01*
X139760000Y-87925152D01*
X139760000Y-77703711D01*
X139877431Y-77586280D01*
X140035000Y-77205874D01*
X140035000Y-77134999D01*
X140060198Y-77134999D01*
X140965000Y-78039802D01*
X140965000Y-78205874D01*
X141122569Y-78586280D01*
X141413720Y-78877431D01*
X141709628Y-79000000D01*
X141413720Y-79122569D01*
X141122569Y-79413720D01*
X140965000Y-79794126D01*
X140965000Y-80205874D01*
X141122569Y-80586280D01*
X141240001Y-80703712D01*
X141240000Y-88685198D01*
X139685199Y-90240000D01*
X134314802Y-90240000D01*
X134035000Y-89960199D01*
X134035000Y-89794126D01*
X133877431Y-89413720D01*
X133586280Y-89122569D01*
X133205874Y-88965000D01*
X132794126Y-88965000D01*
X132413720Y-89122569D01*
X132122569Y-89413720D01*
X131965000Y-89794126D01*
X131965000Y-90205874D01*
X132122569Y-90586280D01*
X132218640Y-90682351D01*
X131767770Y-90869107D01*
X131409107Y-91227770D01*
X131215000Y-91696387D01*
X131215000Y-92203613D01*
X131409107Y-92672230D01*
X131767770Y-93030893D01*
X132236387Y-93225000D01*
X132743613Y-93225000D01*
X133212230Y-93030893D01*
X133570893Y-92672230D01*
X133760000Y-92215684D01*
X133949107Y-92672230D01*
X134307770Y-93030893D01*
X134776387Y-93225000D01*
X135283613Y-93225000D01*
X135752230Y-93030893D01*
X136110893Y-92672230D01*
X136300000Y-92215684D01*
X136489107Y-92672230D01*
X136847770Y-93030893D01*
X137316387Y-93225000D01*
X137823613Y-93225000D01*
X138292230Y-93030893D01*
X138650893Y-92672230D01*
X138840000Y-92215684D01*
X139029107Y-92672230D01*
X139387770Y-93030893D01*
X139856387Y-93225000D01*
X140363613Y-93225000D01*
X140832230Y-93030893D01*
X141190893Y-92672230D01*
X141380000Y-92215684D01*
X141569107Y-92672230D01*
X141927770Y-93030893D01*
X142396387Y-93225000D01*
X142903613Y-93225000D01*
X143372230Y-93030893D01*
X143730893Y-92672230D01*
X143920000Y-92215684D01*
X144109107Y-92672230D01*
X144467770Y-93030893D01*
X144936387Y-93225000D01*
X145443613Y-93225000D01*
X145912230Y-93030893D01*
X146270893Y-92672230D01*
X146460000Y-92215684D01*
X146649107Y-92672230D01*
X147007770Y-93030893D01*
X147476387Y-93225000D01*
X147983613Y-93225000D01*
X148452230Y-93030893D01*
X148641362Y-92841761D01*
X149557844Y-92841761D01*
X149612292Y-93071323D01*
X150091468Y-93237661D01*
X150597825Y-93207965D01*
X150927708Y-93071323D01*
X150982156Y-92841761D01*
X152097844Y-92841761D01*
X152152292Y-93071323D01*
X152631468Y-93237661D01*
X153137825Y-93207965D01*
X153467708Y-93071323D01*
X153522156Y-92841761D01*
X152810000Y-92129605D01*
X152097844Y-92841761D01*
X150982156Y-92841761D01*
X150270000Y-92129605D01*
X149557844Y-92841761D01*
X148641362Y-92841761D01*
X148810893Y-92672230D01*
X149005000Y-92203613D01*
X149005000Y-92157869D01*
X149012035Y-92277825D01*
X149148677Y-92607708D01*
X149378239Y-92662156D01*
X150090395Y-91950000D01*
X150449605Y-91950000D01*
X151161761Y-92662156D01*
X151391323Y-92607708D01*
X151545358Y-92163974D01*
X151552035Y-92277825D01*
X151688677Y-92607708D01*
X151918239Y-92662156D01*
X152630395Y-91950000D01*
X152989605Y-91950000D01*
X153701761Y-92662156D01*
X153931323Y-92607708D01*
X154075000Y-92193812D01*
X154075000Y-92203613D01*
X154269107Y-92672230D01*
X154627770Y-93030893D01*
X155096387Y-93225000D01*
X155603613Y-93225000D01*
X156072230Y-93030893D01*
X156430893Y-92672230D01*
X156620000Y-92215684D01*
X156809107Y-92672230D01*
X157167770Y-93030893D01*
X157636387Y-93225000D01*
X158143613Y-93225000D01*
X158612230Y-93030893D01*
X158970893Y-92672230D01*
X159160000Y-92215684D01*
X159349107Y-92672230D01*
X159707770Y-93030893D01*
X160176387Y-93225000D01*
X160683613Y-93225000D01*
X161152230Y-93030893D01*
X161510893Y-92672230D01*
X161700000Y-92215684D01*
X161889107Y-92672230D01*
X162247770Y-93030893D01*
X162716387Y-93225000D01*
X163223613Y-93225000D01*
X163692230Y-93030893D01*
X164050893Y-92672230D01*
X164240000Y-92215684D01*
X164429107Y-92672230D01*
X164787770Y-93030893D01*
X165256387Y-93225000D01*
X165763613Y-93225000D01*
X166232230Y-93030893D01*
X166590893Y-92672230D01*
X166785000Y-92203613D01*
X166785000Y-91696387D01*
X166590893Y-91227770D01*
X166232230Y-90869107D01*
X165763613Y-90675000D01*
X165256387Y-90675000D01*
X164787770Y-90869107D01*
X164429107Y-91227770D01*
X164240000Y-91684316D01*
X164050893Y-91227770D01*
X163692230Y-90869107D01*
X163223613Y-90675000D01*
X162716387Y-90675000D01*
X162247770Y-90869107D01*
X161889107Y-91227770D01*
X161700000Y-91684316D01*
X161510893Y-91227770D01*
X161152230Y-90869107D01*
X160683613Y-90675000D01*
X160176387Y-90675000D01*
X159707770Y-90869107D01*
X159349107Y-91227770D01*
X159160000Y-91684316D01*
X158970893Y-91227770D01*
X158612230Y-90869107D01*
X158143613Y-90675000D01*
X157636387Y-90675000D01*
X157167770Y-90869107D01*
X156809107Y-91227770D01*
X156620000Y-91684316D01*
X156430893Y-91227770D01*
X156072230Y-90869107D01*
X155603613Y-90675000D01*
X155096387Y-90675000D01*
X154627770Y-90869107D01*
X154269107Y-91227770D01*
X154075000Y-91696387D01*
X154075000Y-91742131D01*
X154067965Y-91622175D01*
X153931323Y-91292292D01*
X153701761Y-91237844D01*
X152989605Y-91950000D01*
X152630395Y-91950000D01*
X151918239Y-91237844D01*
X151688677Y-91292292D01*
X151534642Y-91736026D01*
X151527965Y-91622175D01*
X151391323Y-91292292D01*
X151161761Y-91237844D01*
X150449605Y-91950000D01*
X150090395Y-91950000D01*
X149378239Y-91237844D01*
X149148677Y-91292292D01*
X149005000Y-91706188D01*
X149005000Y-91696387D01*
X148810893Y-91227770D01*
X148641362Y-91058239D01*
X149557844Y-91058239D01*
X150270000Y-91770395D01*
X150982156Y-91058239D01*
X152097844Y-91058239D01*
X152810000Y-91770395D01*
X153522156Y-91058239D01*
X153467708Y-90828677D01*
X152988532Y-90662339D01*
X152482175Y-90692035D01*
X152152292Y-90828677D01*
X152097844Y-91058239D01*
X150982156Y-91058239D01*
X150927708Y-90828677D01*
X150448532Y-90662339D01*
X149942175Y-90692035D01*
X149612292Y-90828677D01*
X149557844Y-91058239D01*
X148641362Y-91058239D01*
X148452230Y-90869107D01*
X147983613Y-90675000D01*
X147476387Y-90675000D01*
X147007770Y-90869107D01*
X146649107Y-91227770D01*
X146460000Y-91684316D01*
X146270893Y-91227770D01*
X145912230Y-90869107D01*
X145443613Y-90675000D01*
X144936387Y-90675000D01*
X144467770Y-90869107D01*
X144109107Y-91227770D01*
X143920000Y-91684316D01*
X143730893Y-91227770D01*
X143372230Y-90869107D01*
X142903613Y-90675000D01*
X142396387Y-90675000D01*
X141927770Y-90869107D01*
X141569107Y-91227770D01*
X141380000Y-91684316D01*
X141190893Y-91227770D01*
X141018962Y-91055839D01*
X142484473Y-89590329D01*
X142547929Y-89547929D01*
X142715904Y-89296537D01*
X142760000Y-89074852D01*
X142760000Y-89074848D01*
X142774888Y-89000001D01*
X142760000Y-88925154D01*
X142760000Y-80703711D01*
X142877431Y-80586280D01*
X143035000Y-80205874D01*
X143035000Y-79794126D01*
X142877431Y-79413720D01*
X142586280Y-79122569D01*
X142290372Y-79000000D01*
X142586280Y-78877431D01*
X142877431Y-78586280D01*
X143035000Y-78205874D01*
X143035000Y-77794126D01*
X142877431Y-77413720D01*
X142586280Y-77122569D01*
X142290372Y-77000000D01*
X142586280Y-76877431D01*
X142877431Y-76586280D01*
X143035000Y-76205874D01*
X143035000Y-76039801D01*
X144615000Y-74459802D01*
X144615000Y-79300147D01*
X144600111Y-79374999D01*
X144615000Y-79449851D01*
X144659096Y-79671536D01*
X144827071Y-79922928D01*
X144890527Y-79965328D01*
X144965000Y-80039801D01*
X144965000Y-80205874D01*
X145122569Y-80586280D01*
X145413720Y-80877431D01*
X145794126Y-81035000D01*
X146205874Y-81035000D01*
X146586280Y-80877431D01*
X146877431Y-80586280D01*
X147035000Y-80205874D01*
X147035000Y-79794126D01*
X146877431Y-79413720D01*
X146586280Y-79122569D01*
X146205874Y-78965000D01*
X146134999Y-78965000D01*
X146134999Y-78209800D01*
X148409670Y-80484472D01*
X148452071Y-80547929D01*
X148515527Y-80590329D01*
X148703462Y-80715904D01*
X148751605Y-80725480D01*
X148925148Y-80760000D01*
X148925152Y-80760000D01*
X149000000Y-80774888D01*
X149074848Y-80760000D01*
X150979135Y-80760000D01*
X150965000Y-80794126D01*
X150965000Y-80960197D01*
X147888753Y-84036446D01*
X146907265Y-84036446D01*
X146789834Y-83919015D01*
X146409428Y-83761446D01*
X145997680Y-83761446D01*
X145617274Y-83919015D01*
X145326123Y-84210166D01*
X145205010Y-84502560D01*
X144150000Y-84502560D01*
X143902235Y-84551843D01*
X143692191Y-84692191D01*
X143551843Y-84902235D01*
X143502560Y-85150000D01*
X143502560Y-86850000D01*
X143551843Y-87097765D01*
X143692191Y-87307809D01*
X143902235Y-87448157D01*
X144150000Y-87497440D01*
X145850000Y-87497440D01*
X146097765Y-87448157D01*
X146307809Y-87307809D01*
X146448157Y-87097765D01*
X146457184Y-87052381D01*
X146469375Y-87070625D01*
X146960582Y-87398839D01*
X147393744Y-87485000D01*
X147686256Y-87485000D01*
X148119418Y-87398839D01*
X148610625Y-87070625D01*
X148823843Y-86751522D01*
X148884817Y-86881358D01*
X149313076Y-87271645D01*
X149723110Y-87441476D01*
X149953000Y-87320155D01*
X149953000Y-86127000D01*
X149933000Y-86127000D01*
X149933000Y-85873000D01*
X149953000Y-85873000D01*
X149953000Y-84679845D01*
X149723110Y-84558524D01*
X149370040Y-84704761D01*
X152039803Y-82035000D01*
X152205874Y-82035000D01*
X152586280Y-81877431D01*
X152694455Y-81769256D01*
X152965000Y-82039802D01*
X152965000Y-82205874D01*
X153122569Y-82586280D01*
X153413720Y-82877431D01*
X153794126Y-83035000D01*
X154205874Y-83035000D01*
X154586280Y-82877431D01*
X154694454Y-82769257D01*
X156764371Y-84839174D01*
X156629375Y-84929375D01*
X156430000Y-85227761D01*
X156230625Y-84929375D01*
X155739418Y-84601161D01*
X155306256Y-84515000D01*
X155013744Y-84515000D01*
X154580582Y-84601161D01*
X154089375Y-84929375D01*
X153890000Y-85227761D01*
X153690625Y-84929375D01*
X153199418Y-84601161D01*
X152766256Y-84515000D01*
X152473744Y-84515000D01*
X152040582Y-84601161D01*
X151549375Y-84929375D01*
X151336157Y-85248478D01*
X151275183Y-85118642D01*
X150846924Y-84728355D01*
X150436890Y-84558524D01*
X150207000Y-84679845D01*
X150207000Y-85873000D01*
X150227000Y-85873000D01*
X150227000Y-86127000D01*
X150207000Y-86127000D01*
X150207000Y-87320155D01*
X150436890Y-87441476D01*
X150846924Y-87271645D01*
X151275183Y-86881358D01*
X151336157Y-86751522D01*
X151549375Y-87070625D01*
X152040582Y-87398839D01*
X152473744Y-87485000D01*
X152766256Y-87485000D01*
X153199418Y-87398839D01*
X153690625Y-87070625D01*
X153890000Y-86772239D01*
X154089375Y-87070625D01*
X154580582Y-87398839D01*
X155013744Y-87485000D01*
X155306256Y-87485000D01*
X155739418Y-87398839D01*
X156230625Y-87070625D01*
X156430000Y-86772239D01*
X156629375Y-87070625D01*
X157120582Y-87398839D01*
X157553744Y-87485000D01*
X157846256Y-87485000D01*
X158279418Y-87398839D01*
X158770625Y-87070625D01*
X159098839Y-86579418D01*
X159214092Y-86000000D01*
X159098839Y-85420582D01*
X158770625Y-84929375D01*
X158469310Y-84728043D01*
X158474888Y-84699999D01*
X158460000Y-84625152D01*
X158460000Y-84625148D01*
X158415904Y-84403463D01*
X158336529Y-84284670D01*
X158290329Y-84215526D01*
X158290327Y-84215524D01*
X158247929Y-84152071D01*
X158184476Y-84109673D01*
X151035000Y-76960199D01*
X151035000Y-76794126D01*
X151020865Y-76760000D01*
X154680197Y-76760000D01*
X156429670Y-78509474D01*
X156472070Y-78572930D01*
X156723462Y-78740905D01*
X156945147Y-78785001D01*
X156945152Y-78785001D01*
X157019999Y-78799889D01*
X157094846Y-78785001D01*
X165665026Y-78785001D01*
X165601161Y-78880582D01*
X165485908Y-79460000D01*
X165601161Y-80039418D01*
X165929375Y-80530625D01*
X165947619Y-80542816D01*
X165902235Y-80551843D01*
X165692191Y-80692191D01*
X165551843Y-80902235D01*
X165502560Y-81150000D01*
X165502560Y-82850000D01*
X165551843Y-83097765D01*
X165692191Y-83307809D01*
X165902235Y-83448157D01*
X166150000Y-83497440D01*
X167850000Y-83497440D01*
X168097765Y-83448157D01*
X168307809Y-83307809D01*
X168448157Y-83097765D01*
X168497440Y-82850000D01*
X168497440Y-82648483D01*
X168647929Y-82547929D01*
X168690331Y-82484470D01*
X169265001Y-81909801D01*
X169265000Y-132265000D01*
X110735000Y-132265000D01*
X110735000Y-129796387D01*
X131215000Y-129796387D01*
X131215000Y-130303613D01*
X131409107Y-130772230D01*
X131767770Y-131130893D01*
X132236387Y-131325000D01*
X132743613Y-131325000D01*
X133212230Y-131130893D01*
X133570893Y-130772230D01*
X133760000Y-130315684D01*
X133949107Y-130772230D01*
X134307770Y-131130893D01*
X134776387Y-131325000D01*
X135283613Y-131325000D01*
X135752230Y-131130893D01*
X136110893Y-130772230D01*
X136305000Y-130303613D01*
X136305000Y-129796387D01*
X161695000Y-129796387D01*
X161695000Y-130303613D01*
X161889107Y-130772230D01*
X162247770Y-131130893D01*
X162716387Y-131325000D01*
X163223613Y-131325000D01*
X163692230Y-131130893D01*
X164050893Y-130772230D01*
X164240000Y-130315684D01*
X164429107Y-130772230D01*
X164787770Y-131130893D01*
X165256387Y-131325000D01*
X165763613Y-131325000D01*
X166232230Y-131130893D01*
X166590893Y-130772230D01*
X166785000Y-130303613D01*
X166785000Y-129796387D01*
X166590893Y-129327770D01*
X166232230Y-128969107D01*
X165763613Y-128775000D01*
X165256387Y-128775000D01*
X164787770Y-128969107D01*
X164429107Y-129327770D01*
X164240000Y-129784316D01*
X164050893Y-129327770D01*
X163692230Y-128969107D01*
X163223613Y-128775000D01*
X162716387Y-128775000D01*
X162247770Y-128969107D01*
X161889107Y-129327770D01*
X161695000Y-129796387D01*
X136305000Y-129796387D01*
X136110893Y-129327770D01*
X135752230Y-128969107D01*
X135283613Y-128775000D01*
X134776387Y-128775000D01*
X134307770Y-128969107D01*
X133949107Y-129327770D01*
X133760000Y-129784316D01*
X133570893Y-129327770D01*
X133212230Y-128969107D01*
X132743613Y-128775000D01*
X132236387Y-128775000D01*
X131767770Y-128969107D01*
X131409107Y-129327770D01*
X131215000Y-129796387D01*
X110735000Y-129796387D01*
X110735000Y-113699779D01*
X117890001Y-113699779D01*
X117890001Y-114350223D01*
X118138915Y-114951154D01*
X118598848Y-115411087D01*
X119199779Y-115660001D01*
X119850223Y-115660001D01*
X120451154Y-115411087D01*
X120911087Y-114951154D01*
X121160001Y-114350223D01*
X121160001Y-113699779D01*
X124390001Y-113699779D01*
X124390001Y-114350223D01*
X124638915Y-114951154D01*
X125098848Y-115411087D01*
X125699779Y-115660001D01*
X126350223Y-115660001D01*
X126951154Y-115411087D01*
X127411087Y-114951154D01*
X127660001Y-114350223D01*
X127660001Y-113699779D01*
X127411087Y-113098848D01*
X126951154Y-112638915D01*
X126350223Y-112390001D01*
X125699779Y-112390001D01*
X125098848Y-112638915D01*
X124638915Y-113098848D01*
X124390001Y-113699779D01*
X121160001Y-113699779D01*
X120911087Y-113098848D01*
X120451154Y-112638915D01*
X119850223Y-112390001D01*
X119199779Y-112390001D01*
X118598848Y-112638915D01*
X118138915Y-113098848D01*
X117890001Y-113699779D01*
X110735000Y-113699779D01*
X110735000Y-110677533D01*
X118552074Y-110677533D01*
X118650737Y-110944388D01*
X119260462Y-111170909D01*
X119910461Y-111146857D01*
X120399265Y-110944388D01*
X120497928Y-110677533D01*
X125052074Y-110677533D01*
X125150737Y-110944388D01*
X125760462Y-111170909D01*
X126410461Y-111146857D01*
X126899265Y-110944388D01*
X126997928Y-110677533D01*
X126025001Y-109704606D01*
X125052074Y-110677533D01*
X120497928Y-110677533D01*
X119525001Y-109704606D01*
X118552074Y-110677533D01*
X110735000Y-110677533D01*
X110735000Y-109260462D01*
X117879093Y-109260462D01*
X117903145Y-109910461D01*
X118105614Y-110399265D01*
X118372469Y-110497928D01*
X119345396Y-109525001D01*
X119704606Y-109525001D01*
X120677533Y-110497928D01*
X120944388Y-110399265D01*
X121170909Y-109789540D01*
X121151332Y-109260462D01*
X124379093Y-109260462D01*
X124403145Y-109910461D01*
X124605614Y-110399265D01*
X124872469Y-110497928D01*
X125845396Y-109525001D01*
X126204606Y-109525001D01*
X127177533Y-110497928D01*
X127444388Y-110399265D01*
X127670909Y-109789540D01*
X127646857Y-109139541D01*
X127444388Y-108650737D01*
X127177533Y-108552074D01*
X126204606Y-109525001D01*
X125845396Y-109525001D01*
X124872469Y-108552074D01*
X124605614Y-108650737D01*
X124379093Y-109260462D01*
X121151332Y-109260462D01*
X121146857Y-109139541D01*
X120944388Y-108650737D01*
X120677533Y-108552074D01*
X119704606Y-109525001D01*
X119345396Y-109525001D01*
X118372469Y-108552074D01*
X118105614Y-108650737D01*
X117879093Y-109260462D01*
X110735000Y-109260462D01*
X110735000Y-108372469D01*
X118552074Y-108372469D01*
X119525001Y-109345396D01*
X120497928Y-108372469D01*
X125052074Y-108372469D01*
X126025001Y-109345396D01*
X126997928Y-108372469D01*
X126899265Y-108105614D01*
X126289540Y-107879093D01*
X125639541Y-107903145D01*
X125150737Y-108105614D01*
X125052074Y-108372469D01*
X120497928Y-108372469D01*
X120399265Y-108105614D01*
X119789540Y-107879093D01*
X119139541Y-107903145D01*
X118650737Y-108105614D01*
X118552074Y-108372469D01*
X110735000Y-108372469D01*
X110735000Y-106152532D01*
X118527073Y-106152532D01*
X118625736Y-106419387D01*
X119235461Y-106645908D01*
X119885460Y-106621856D01*
X120374264Y-106419387D01*
X120472927Y-106152532D01*
X125027073Y-106152532D01*
X125125736Y-106419387D01*
X125735461Y-106645908D01*
X126385460Y-106621856D01*
X126874264Y-106419387D01*
X126972927Y-106152532D01*
X126000000Y-105179605D01*
X125027073Y-106152532D01*
X120472927Y-106152532D01*
X119500000Y-105179605D01*
X118527073Y-106152532D01*
X110735000Y-106152532D01*
X110735000Y-104735461D01*
X117854092Y-104735461D01*
X117878144Y-105385460D01*
X118080613Y-105874264D01*
X118347468Y-105972927D01*
X119320395Y-105000000D01*
X119679605Y-105000000D01*
X120652532Y-105972927D01*
X120919387Y-105874264D01*
X121145908Y-105264539D01*
X121126331Y-104735461D01*
X124354092Y-104735461D01*
X124378144Y-105385460D01*
X124580613Y-105874264D01*
X124847468Y-105972927D01*
X125820395Y-105000000D01*
X126179605Y-105000000D01*
X127152532Y-105972927D01*
X127419387Y-105874264D01*
X127645908Y-105264539D01*
X127621856Y-104614540D01*
X127419387Y-104125736D01*
X127152532Y-104027073D01*
X126179605Y-105000000D01*
X125820395Y-105000000D01*
X124847468Y-104027073D01*
X124580613Y-104125736D01*
X124354092Y-104735461D01*
X121126331Y-104735461D01*
X121121856Y-104614540D01*
X120919387Y-104125736D01*
X120652532Y-104027073D01*
X119679605Y-105000000D01*
X119320395Y-105000000D01*
X118347468Y-104027073D01*
X118080613Y-104125736D01*
X117854092Y-104735461D01*
X110735000Y-104735461D01*
X110735000Y-103847468D01*
X118527073Y-103847468D01*
X119500000Y-104820395D01*
X120472927Y-103847468D01*
X125027073Y-103847468D01*
X126000000Y-104820395D01*
X126972927Y-103847468D01*
X126874264Y-103580613D01*
X126264539Y-103354092D01*
X125614540Y-103378144D01*
X125125736Y-103580613D01*
X125027073Y-103847468D01*
X120472927Y-103847468D01*
X120374264Y-103580613D01*
X119764539Y-103354092D01*
X119114540Y-103378144D01*
X118625736Y-103580613D01*
X118527073Y-103847468D01*
X110735000Y-103847468D01*
X110735000Y-100174778D01*
X117865000Y-100174778D01*
X117865000Y-100825222D01*
X118113914Y-101426153D01*
X118573847Y-101886086D01*
X119174778Y-102135000D01*
X119825222Y-102135000D01*
X120426153Y-101886086D01*
X120886086Y-101426153D01*
X121135000Y-100825222D01*
X121135000Y-100174778D01*
X120886086Y-99573847D01*
X120426153Y-99113914D01*
X119825222Y-98865000D01*
X119174778Y-98865000D01*
X118573847Y-99113914D01*
X118113914Y-99573847D01*
X117865000Y-100174778D01*
X110735000Y-100174778D01*
X110735000Y-57730000D01*
X133592275Y-57730000D01*
X133682157Y-58181867D01*
X133651843Y-58227235D01*
X133602560Y-58475000D01*
X133602560Y-59525000D01*
X133651843Y-59772765D01*
X133792191Y-59982809D01*
X134002235Y-60123157D01*
X134250000Y-60172440D01*
X135750000Y-60172440D01*
X135997765Y-60123157D01*
X136207809Y-59982809D01*
X136348157Y-59772765D01*
X136397440Y-59525000D01*
X136397440Y-58475000D01*
X136348157Y-58227235D01*
X136317843Y-58181867D01*
X136407725Y-57730000D01*
X136317695Y-57277391D01*
X136265984Y-57200000D01*
X153552560Y-57200000D01*
X153552560Y-58800000D01*
X153601843Y-59047765D01*
X153741995Y-59257516D01*
X153553035Y-59783223D01*
X153580222Y-60353454D01*
X153746136Y-60754005D01*
X153992255Y-60828139D01*
X154820395Y-60000000D01*
X154806252Y-59985858D01*
X154985858Y-59806253D01*
X155000000Y-59820395D01*
X155014143Y-59806253D01*
X155193748Y-59985858D01*
X155179605Y-60000000D01*
X156007745Y-60828139D01*
X156253864Y-60754005D01*
X156446965Y-60216777D01*
X156419778Y-59646546D01*
X156258395Y-59256933D01*
X156398157Y-59047765D01*
X156447440Y-58800000D01*
X156447440Y-57794126D01*
X157965000Y-57794126D01*
X157965000Y-58205874D01*
X158122569Y-58586280D01*
X158413720Y-58877431D01*
X158794126Y-59035000D01*
X159205874Y-59035000D01*
X159586280Y-58877431D01*
X159877431Y-58586280D01*
X160035000Y-58205874D01*
X160035000Y-57794126D01*
X159877431Y-57413720D01*
X159586280Y-57122569D01*
X159205874Y-56965000D01*
X158794126Y-56965000D01*
X158413720Y-57122569D01*
X158122569Y-57413720D01*
X157965000Y-57794126D01*
X156447440Y-57794126D01*
X156447440Y-57200000D01*
X156398157Y-56952235D01*
X156257809Y-56742191D01*
X156047765Y-56601843D01*
X155800000Y-56552560D01*
X154200000Y-56552560D01*
X153952235Y-56601843D01*
X153742191Y-56742191D01*
X153601843Y-56952235D01*
X153552560Y-57200000D01*
X136265984Y-57200000D01*
X136189146Y-57085004D01*
X136335266Y-56827336D01*
X136343964Y-56765810D01*
X136218163Y-56587000D01*
X135424710Y-56587000D01*
X135339246Y-56570000D01*
X134660754Y-56570000D01*
X134575290Y-56587000D01*
X133781837Y-56587000D01*
X133656036Y-56765810D01*
X133664734Y-56827336D01*
X133810854Y-57085004D01*
X133682305Y-57277391D01*
X133592275Y-57730000D01*
X110735000Y-57730000D01*
X110735000Y-56154190D01*
X133656036Y-56154190D01*
X133781837Y-56333000D01*
X134873000Y-56333000D01*
X134873000Y-55453407D01*
X135127000Y-55453407D01*
X135127000Y-56333000D01*
X136218163Y-56333000D01*
X136343964Y-56154190D01*
X136335266Y-56092664D01*
X136110179Y-55695745D01*
X135750331Y-55415177D01*
X135310506Y-55293674D01*
X135127000Y-55453407D01*
X134873000Y-55453407D01*
X134689494Y-55293674D01*
X134249669Y-55415177D01*
X133889821Y-55695745D01*
X133664734Y-56092664D01*
X133656036Y-56154190D01*
X110735000Y-56154190D01*
X110735000Y-50735000D01*
X121943383Y-50735000D01*
X121865000Y-50924234D01*
X121865000Y-50924234D01*
G37*
X121865000Y-50924234D02*
X121865000Y-51375766D01*
X122037793Y-51792926D01*
X122357074Y-52112207D01*
X122774234Y-52285000D01*
X123225766Y-52285000D01*
X123642926Y-52112207D01*
X123962207Y-51792926D01*
X124135000Y-51375766D01*
X124135000Y-50924234D01*
X124056617Y-50735000D01*
X127943383Y-50735000D01*
X127865000Y-50924234D01*
X127865000Y-51375766D01*
X128037793Y-51792926D01*
X128357074Y-52112207D01*
X128774234Y-52285000D01*
X129225766Y-52285000D01*
X129642926Y-52112207D01*
X129770133Y-51985000D01*
X153487560Y-51985000D01*
X153487560Y-54015000D01*
X153536843Y-54262765D01*
X153677191Y-54472809D01*
X153887235Y-54613157D01*
X154135000Y-54662440D01*
X155865000Y-54662440D01*
X156112765Y-54613157D01*
X156322809Y-54472809D01*
X156463157Y-54262765D01*
X156480787Y-54174130D01*
X156639143Y-54350793D01*
X157167240Y-54604131D01*
X157180754Y-54606346D01*
X157413000Y-54485224D01*
X157413000Y-53127000D01*
X157667000Y-53127000D01*
X157667000Y-54485224D01*
X157899246Y-54606346D01*
X157912760Y-54604131D01*
X158440857Y-54350793D01*
X158810000Y-53938973D01*
X159179143Y-54350793D01*
X159707240Y-54604131D01*
X159720754Y-54606346D01*
X159953000Y-54485224D01*
X159953000Y-53127000D01*
X160207000Y-53127000D01*
X160207000Y-54485224D01*
X160439246Y-54606346D01*
X160452760Y-54604131D01*
X160980857Y-54350793D01*
X161350000Y-53938973D01*
X161719143Y-54350793D01*
X162247240Y-54604131D01*
X162260754Y-54606346D01*
X162493000Y-54485224D01*
X162493000Y-53127000D01*
X162747000Y-53127000D01*
X162747000Y-54485224D01*
X162979246Y-54606346D01*
X162992760Y-54604131D01*
X163520857Y-54350793D01*
X163911807Y-53914645D01*
X164106091Y-53362087D01*
X163962222Y-53127000D01*
X162747000Y-53127000D01*
X162493000Y-53127000D01*
X160207000Y-53127000D01*
X159953000Y-53127000D01*
X157667000Y-53127000D01*
X157413000Y-53127000D01*
X157393000Y-53127000D01*
X157393000Y-52873000D01*
X157413000Y-52873000D01*
X157413000Y-51514776D01*
X157180754Y-51393654D01*
X157167240Y-51395869D01*
X156639143Y-51649207D01*
X156480787Y-51825870D01*
X156463157Y-51737235D01*
X156322809Y-51527191D01*
X156112765Y-51386843D01*
X155865000Y-51337560D01*
X154135000Y-51337560D01*
X153887235Y-51386843D01*
X153677191Y-51527191D01*
X153536843Y-51737235D01*
X153487560Y-51985000D01*
X129770133Y-51985000D01*
X129962207Y-51792926D01*
X130135000Y-51375766D01*
X130135000Y-50924234D01*
X130056617Y-50735000D01*
X158895000Y-50735000D01*
X158895000Y-51075711D01*
X159075405Y-51511249D01*
X159202269Y-51638113D01*
X159179143Y-51649207D01*
X158810000Y-52061027D01*
X158440857Y-51649207D01*
X157912760Y-51395869D01*
X157899246Y-51393654D01*
X157667000Y-51514776D01*
X157667000Y-52873000D01*
X159953000Y-52873000D01*
X159953000Y-52853000D01*
X160207000Y-52853000D01*
X160207000Y-52873000D01*
X162493000Y-52873000D01*
X162493000Y-51514776D01*
X162747000Y-51514776D01*
X162747000Y-52873000D01*
X163962222Y-52873000D01*
X164106091Y-52637913D01*
X163911807Y-52085355D01*
X163520857Y-51649207D01*
X162992760Y-51395869D01*
X162979246Y-51393654D01*
X162747000Y-51514776D01*
X162493000Y-51514776D01*
X162260754Y-51393654D01*
X162247240Y-51395869D01*
X161719143Y-51649207D01*
X161350000Y-52061027D01*
X160980857Y-51649207D01*
X160957731Y-51638113D01*
X161084595Y-51511249D01*
X161265000Y-51075711D01*
X161265000Y-50735000D01*
X169265001Y-50735000D01*
X169265001Y-73190199D01*
X168590331Y-72515530D01*
X168547929Y-72452071D01*
X168410597Y-72360308D01*
X168514092Y-71840000D01*
X168398839Y-71260582D01*
X168070625Y-70769375D01*
X167772239Y-70570000D01*
X168070625Y-70370625D01*
X168398839Y-69879418D01*
X168514092Y-69300000D01*
X168398839Y-68720582D01*
X168070625Y-68229375D01*
X167579418Y-67901161D01*
X167146256Y-67815000D01*
X166853744Y-67815000D01*
X166420582Y-67901161D01*
X165929375Y-68229375D01*
X165601161Y-68720582D01*
X165485908Y-69300000D01*
X165601161Y-69879418D01*
X165929375Y-70370625D01*
X166227761Y-70570000D01*
X165929375Y-70769375D01*
X165601161Y-71260582D01*
X165485908Y-71840000D01*
X165565473Y-72240000D01*
X165303848Y-72240000D01*
X165229000Y-72225112D01*
X165154152Y-72240000D01*
X165154148Y-72240000D01*
X164932463Y-72284096D01*
X164681071Y-72452071D01*
X164638671Y-72515527D01*
X164314198Y-72840001D01*
X147474845Y-72840001D01*
X147399998Y-72825113D01*
X147325151Y-72840001D01*
X147325147Y-72840001D01*
X147103462Y-72884097D01*
X146982382Y-72965000D01*
X146794126Y-72965000D01*
X146760000Y-72979135D01*
X146760000Y-69703711D01*
X146877431Y-69586280D01*
X147035000Y-69205874D01*
X147035000Y-69134999D01*
X150060198Y-69134999D01*
X150409671Y-69484473D01*
X150452071Y-69547929D01*
X150703463Y-69715904D01*
X150925148Y-69760000D01*
X150925153Y-69760000D01*
X151000000Y-69774888D01*
X151074847Y-69760000D01*
X156296289Y-69760000D01*
X156413720Y-69877431D01*
X156794126Y-70035000D01*
X157205874Y-70035000D01*
X157586280Y-69877431D01*
X157877431Y-69586280D01*
X158035000Y-69205874D01*
X158035000Y-68794126D01*
X157877431Y-68413720D01*
X157586280Y-68122569D01*
X157205874Y-67965000D01*
X156794126Y-67965000D01*
X156413720Y-68122569D01*
X156296289Y-68240000D01*
X155436012Y-68240000D01*
X155475000Y-68145874D01*
X155475000Y-67734126D01*
X155317431Y-67353720D01*
X155026280Y-67062569D01*
X154645874Y-66905000D01*
X154234126Y-66905000D01*
X153853720Y-67062569D01*
X153562569Y-67353720D01*
X153405000Y-67734126D01*
X153405000Y-68145874D01*
X153443988Y-68240000D01*
X151314802Y-68240000D01*
X150965330Y-67890529D01*
X150922928Y-67827070D01*
X150671536Y-67659095D01*
X150449851Y-67614999D01*
X150449846Y-67614999D01*
X150374999Y-67600111D01*
X150300152Y-67614999D01*
X149848712Y-67614999D01*
X149877431Y-67586280D01*
X150035000Y-67205874D01*
X150035000Y-66794126D01*
X149877431Y-66413720D01*
X149774217Y-66310506D01*
X158293674Y-66310506D01*
X158415177Y-66750331D01*
X158695745Y-67110179D01*
X159092664Y-67335266D01*
X159154190Y-67343964D01*
X159333000Y-67218163D01*
X159333000Y-66127000D01*
X158453407Y-66127000D01*
X158293674Y-66310506D01*
X149774217Y-66310506D01*
X149760000Y-66296289D01*
X149760000Y-65689494D01*
X158293674Y-65689494D01*
X158453407Y-65873000D01*
X159333000Y-65873000D01*
X159333000Y-65660754D01*
X159570000Y-65660754D01*
X159570000Y-66339245D01*
X159587000Y-66424709D01*
X159587000Y-67218163D01*
X159765810Y-67343964D01*
X159827336Y-67335266D01*
X160085004Y-67189146D01*
X160277391Y-67317695D01*
X160730000Y-67407725D01*
X161181866Y-67317842D01*
X161227235Y-67348157D01*
X161475000Y-67397440D01*
X162525000Y-67397440D01*
X162772765Y-67348157D01*
X162982809Y-67207809D01*
X163123157Y-66997765D01*
X163172440Y-66750000D01*
X163172440Y-65250000D01*
X163123157Y-65002235D01*
X162982809Y-64792191D01*
X162772765Y-64651843D01*
X162525000Y-64602560D01*
X161475000Y-64602560D01*
X161227235Y-64651843D01*
X161181867Y-64682157D01*
X160730000Y-64592275D01*
X160277392Y-64682305D01*
X160085004Y-64810854D01*
X159827336Y-64664734D01*
X159765810Y-64656036D01*
X159587000Y-64781837D01*
X159587000Y-65575290D01*
X159570000Y-65660754D01*
X159333000Y-65660754D01*
X159333000Y-64781837D01*
X159154190Y-64656036D01*
X159092664Y-64664734D01*
X158695745Y-64889821D01*
X158415177Y-65249669D01*
X158293674Y-65689494D01*
X149760000Y-65689494D01*
X149760000Y-62694670D01*
X157925000Y-62694670D01*
X157925000Y-63305330D01*
X158158690Y-63869507D01*
X158590493Y-64301310D01*
X159154670Y-64535000D01*
X159765330Y-64535000D01*
X160329507Y-64301310D01*
X160498725Y-64132092D01*
X160501843Y-64147765D01*
X160642191Y-64357809D01*
X160852235Y-64498157D01*
X161100000Y-64547440D01*
X162900000Y-64547440D01*
X163147765Y-64498157D01*
X163357809Y-64357809D01*
X163498157Y-64147765D01*
X163547440Y-63900000D01*
X163547440Y-62100000D01*
X163498157Y-61852235D01*
X163357809Y-61642191D01*
X163147765Y-61501843D01*
X162900000Y-61452560D01*
X161100000Y-61452560D01*
X160852235Y-61501843D01*
X160642191Y-61642191D01*
X160501843Y-61852235D01*
X160498725Y-61867908D01*
X160329507Y-61698690D01*
X159765330Y-61465000D01*
X159154670Y-61465000D01*
X158590493Y-61698690D01*
X158158690Y-62130493D01*
X157925000Y-62694670D01*
X149760000Y-62694670D01*
X149760000Y-62149846D01*
X149774888Y-62074998D01*
X149760000Y-62000150D01*
X149760000Y-62000146D01*
X149715904Y-61778461D01*
X149715904Y-61778460D01*
X149590329Y-61590525D01*
X149547929Y-61527069D01*
X149484473Y-61484669D01*
X149007549Y-61007745D01*
X154171861Y-61007745D01*
X154245995Y-61253864D01*
X154783223Y-61446965D01*
X155353454Y-61419778D01*
X155754005Y-61253864D01*
X155828139Y-61007745D01*
X155000000Y-60179605D01*
X154171861Y-61007745D01*
X149007549Y-61007745D01*
X145890332Y-57890529D01*
X145847930Y-57827070D01*
X145596538Y-57659095D01*
X145374853Y-57614999D01*
X145374848Y-57614999D01*
X145300001Y-57600111D01*
X145225154Y-57614999D01*
X139699849Y-57614999D01*
X139625001Y-57600111D01*
X139550153Y-57614999D01*
X139550149Y-57614999D01*
X139328464Y-57659095D01*
X139077072Y-57827070D01*
X139034672Y-57890526D01*
X138960198Y-57965000D01*
X138794126Y-57965000D01*
X138413720Y-58122569D01*
X138122569Y-58413720D01*
X137965000Y-58794126D01*
X137965000Y-59205874D01*
X138122569Y-59586280D01*
X138413720Y-59877431D01*
X138794126Y-60035000D01*
X139205874Y-60035000D01*
X139586280Y-59877431D01*
X139877431Y-59586280D01*
X140035000Y-59205874D01*
X140035000Y-59134999D01*
X143965000Y-59134999D01*
X143965000Y-59205874D01*
X144122569Y-59586280D01*
X144240001Y-59703712D01*
X144240000Y-72685198D01*
X141960199Y-74965000D01*
X141794126Y-74965000D01*
X141413720Y-75122569D01*
X141122569Y-75413720D01*
X140965000Y-75794126D01*
X140965000Y-75890035D01*
X140922928Y-75827070D01*
X140671536Y-75659095D01*
X140449851Y-75614999D01*
X140449846Y-75614999D01*
X140374999Y-75600111D01*
X140300152Y-75614999D01*
X139459803Y-75614999D01*
X141484476Y-73590327D01*
X141547929Y-73547929D01*
X141590327Y-73484476D01*
X141590329Y-73484474D01*
X141674102Y-73359098D01*
X141715904Y-73296537D01*
X141760000Y-73074852D01*
X141760000Y-73074848D01*
X141774888Y-73000001D01*
X141760000Y-72925154D01*
X141760000Y-70703711D01*
X141877431Y-70586280D01*
X142035000Y-70205874D01*
X142035000Y-69794126D01*
X141877431Y-69413720D01*
X141586280Y-69122569D01*
X141205874Y-68965000D01*
X140794126Y-68965000D01*
X140413720Y-69122569D01*
X140122569Y-69413720D01*
X139965000Y-69794126D01*
X139965000Y-70205874D01*
X140122569Y-70586280D01*
X140240001Y-70703712D01*
X140240000Y-72685197D01*
X139737567Y-73187630D01*
X139760000Y-73074852D01*
X139760000Y-73074848D01*
X139774888Y-73000001D01*
X139760000Y-72925154D01*
X139760000Y-72703711D01*
X139877431Y-72586280D01*
X140035000Y-72205874D01*
X140035000Y-71794126D01*
X139877431Y-71413720D01*
X139586280Y-71122569D01*
X139205874Y-70965000D01*
X138794126Y-70965000D01*
X138413720Y-71122569D01*
X138122569Y-71413720D01*
X137965000Y-71794126D01*
X137965000Y-72205874D01*
X138122569Y-72586280D01*
X138230743Y-72694454D01*
X136261001Y-74664197D01*
X136261001Y-74575848D01*
X136275889Y-74501001D01*
X136261001Y-74426154D01*
X136261001Y-74426149D01*
X136216905Y-74204464D01*
X136048930Y-73953072D01*
X135985474Y-73910672D01*
X134590331Y-72515530D01*
X134547929Y-72452071D01*
X134296537Y-72284096D01*
X134074852Y-72240000D01*
X134074847Y-72240000D01*
X134000000Y-72225112D01*
X133925153Y-72240000D01*
X133703711Y-72240000D01*
X133586280Y-72122569D01*
X133205874Y-71965000D01*
X132794126Y-71965000D01*
X132413720Y-72122569D01*
X132122569Y-72413720D01*
X131965000Y-72794126D01*
X131965000Y-73205874D01*
X132122569Y-73586280D01*
X132413720Y-73877431D01*
X132794126Y-74035000D01*
X133205874Y-74035000D01*
X133586280Y-73877431D01*
X133694455Y-73769256D01*
X134741002Y-74815804D01*
X134741001Y-75259194D01*
X131890527Y-78109670D01*
X131827071Y-78152070D01*
X131784671Y-78215526D01*
X131784670Y-78215527D01*
X131659096Y-78403462D01*
X131600111Y-78699999D01*
X131615000Y-78774851D01*
X131614999Y-82300152D01*
X131600111Y-82374999D01*
X131614999Y-82449846D01*
X131614999Y-82449850D01*
X131659095Y-82671535D01*
X131827070Y-82922928D01*
X131890529Y-82965330D01*
X132965000Y-84039802D01*
X132965000Y-84114999D01*
X132074845Y-84114999D01*
X131999998Y-84100111D01*
X131925151Y-84114999D01*
X131925147Y-84114999D01*
X131703462Y-84159095D01*
X131703460Y-84159096D01*
X131703461Y-84159096D01*
X131515525Y-84284670D01*
X131515523Y-84284672D01*
X131452070Y-84327070D01*
X131409672Y-84390524D01*
X131238035Y-84562160D01*
X131147765Y-84501843D01*
X130900000Y-84452560D01*
X129100000Y-84452560D01*
X128852235Y-84501843D01*
X128642191Y-84642191D01*
X128501843Y-84852235D01*
X128452560Y-85100000D01*
X128452560Y-86900000D01*
X128501843Y-87147765D01*
X128642191Y-87357809D01*
X128852235Y-87498157D01*
X129100000Y-87547440D01*
X130371003Y-87547440D01*
X130371003Y-88685197D01*
X125515530Y-93540671D01*
X125452071Y-93583073D01*
X125284096Y-93834466D01*
X125240000Y-94056151D01*
X125240000Y-94056155D01*
X125225112Y-94131002D01*
X125240000Y-94205849D01*
X125240001Y-97296288D01*
X125122569Y-97413720D01*
X124965000Y-97794126D01*
X124965000Y-98205874D01*
X125122569Y-98586280D01*
X125413720Y-98877431D01*
X125529244Y-98925282D01*
X125073847Y-99113914D01*
X124613914Y-99573847D01*
X124365000Y-100174778D01*
X124365000Y-100825222D01*
X124613914Y-101426153D01*
X125073847Y-101886086D01*
X125674778Y-102135000D01*
X126325222Y-102135000D01*
X126926153Y-101886086D01*
X127386086Y-101426153D01*
X127635000Y-100825222D01*
X127635000Y-100174778D01*
X127386086Y-99573847D01*
X126926153Y-99113914D01*
X126470756Y-98925282D01*
X126586280Y-98877431D01*
X126877431Y-98586280D01*
X127035000Y-98205874D01*
X127035000Y-97794126D01*
X126877431Y-97413720D01*
X126760000Y-97296289D01*
X126760000Y-94445803D01*
X131615475Y-89590329D01*
X131678931Y-89547929D01*
X131846906Y-89296537D01*
X131891002Y-89074852D01*
X131891002Y-89074848D01*
X131905890Y-89000000D01*
X131891002Y-88925152D01*
X131891002Y-87392648D01*
X132234670Y-87535000D01*
X132845330Y-87535000D01*
X133409507Y-87301310D01*
X133526360Y-87184457D01*
X133642191Y-87357809D01*
X133852235Y-87498157D01*
X134100000Y-87547440D01*
X135900000Y-87547440D01*
X136147765Y-87498157D01*
X136357809Y-87357809D01*
X136498157Y-87147765D01*
X136501275Y-87132092D01*
X136670493Y-87301310D01*
X137234670Y-87535000D01*
X137845330Y-87535000D01*
X138240001Y-87371522D01*
X138240001Y-87685197D01*
X137960199Y-87965000D01*
X137794126Y-87965000D01*
X137413720Y-88122569D01*
X137122569Y-88413720D01*
X136965000Y-88794126D01*
X136965000Y-89205874D01*
X137122569Y-89586280D01*
X137413720Y-89877431D01*
X137794126Y-90035000D01*
X138205874Y-90035000D01*
X138586280Y-89877431D01*
X138877431Y-89586280D01*
X139035000Y-89205874D01*
X139035000Y-89039801D01*
X139484473Y-88590329D01*
X139547929Y-88547929D01*
X139715904Y-88296537D01*
X139760000Y-88074852D01*
X139760000Y-88074848D01*
X139774888Y-88000000D01*
X139760000Y-87925152D01*
X139760000Y-77703711D01*
X139877431Y-77586280D01*
X140035000Y-77205874D01*
X140035000Y-77134999D01*
X140060198Y-77134999D01*
X140965000Y-78039802D01*
X140965000Y-78205874D01*
X141122569Y-78586280D01*
X141413720Y-78877431D01*
X141709628Y-79000000D01*
X141413720Y-79122569D01*
X141122569Y-79413720D01*
X140965000Y-79794126D01*
X140965000Y-80205874D01*
X141122569Y-80586280D01*
X141240001Y-80703712D01*
X141240000Y-88685198D01*
X139685199Y-90240000D01*
X134314802Y-90240000D01*
X134035000Y-89960199D01*
X134035000Y-89794126D01*
X133877431Y-89413720D01*
X133586280Y-89122569D01*
X133205874Y-88965000D01*
X132794126Y-88965000D01*
X132413720Y-89122569D01*
X132122569Y-89413720D01*
X131965000Y-89794126D01*
X131965000Y-90205874D01*
X132122569Y-90586280D01*
X132218640Y-90682351D01*
X131767770Y-90869107D01*
X131409107Y-91227770D01*
X131215000Y-91696387D01*
X131215000Y-92203613D01*
X131409107Y-92672230D01*
X131767770Y-93030893D01*
X132236387Y-93225000D01*
X132743613Y-93225000D01*
X133212230Y-93030893D01*
X133570893Y-92672230D01*
X133760000Y-92215684D01*
X133949107Y-92672230D01*
X134307770Y-93030893D01*
X134776387Y-93225000D01*
X135283613Y-93225000D01*
X135752230Y-93030893D01*
X136110893Y-92672230D01*
X136300000Y-92215684D01*
X136489107Y-92672230D01*
X136847770Y-93030893D01*
X137316387Y-93225000D01*
X137823613Y-93225000D01*
X138292230Y-93030893D01*
X138650893Y-92672230D01*
X138840000Y-92215684D01*
X139029107Y-92672230D01*
X139387770Y-93030893D01*
X139856387Y-93225000D01*
X140363613Y-93225000D01*
X140832230Y-93030893D01*
X141190893Y-92672230D01*
X141380000Y-92215684D01*
X141569107Y-92672230D01*
X141927770Y-93030893D01*
X142396387Y-93225000D01*
X142903613Y-93225000D01*
X143372230Y-93030893D01*
X143730893Y-92672230D01*
X143920000Y-92215684D01*
X144109107Y-92672230D01*
X144467770Y-93030893D01*
X144936387Y-93225000D01*
X145443613Y-93225000D01*
X145912230Y-93030893D01*
X146270893Y-92672230D01*
X146460000Y-92215684D01*
X146649107Y-92672230D01*
X147007770Y-93030893D01*
X147476387Y-93225000D01*
X147983613Y-93225000D01*
X148452230Y-93030893D01*
X148641362Y-92841761D01*
X149557844Y-92841761D01*
X149612292Y-93071323D01*
X150091468Y-93237661D01*
X150597825Y-93207965D01*
X150927708Y-93071323D01*
X150982156Y-92841761D01*
X152097844Y-92841761D01*
X152152292Y-93071323D01*
X152631468Y-93237661D01*
X153137825Y-93207965D01*
X153467708Y-93071323D01*
X153522156Y-92841761D01*
X152810000Y-92129605D01*
X152097844Y-92841761D01*
X150982156Y-92841761D01*
X150270000Y-92129605D01*
X149557844Y-92841761D01*
X148641362Y-92841761D01*
X148810893Y-92672230D01*
X149005000Y-92203613D01*
X149005000Y-92157869D01*
X149012035Y-92277825D01*
X149148677Y-92607708D01*
X149378239Y-92662156D01*
X150090395Y-91950000D01*
X150449605Y-91950000D01*
X151161761Y-92662156D01*
X151391323Y-92607708D01*
X151545358Y-92163974D01*
X151552035Y-92277825D01*
X151688677Y-92607708D01*
X151918239Y-92662156D01*
X152630395Y-91950000D01*
X152989605Y-91950000D01*
X153701761Y-92662156D01*
X153931323Y-92607708D01*
X154075000Y-92193812D01*
X154075000Y-92203613D01*
X154269107Y-92672230D01*
X154627770Y-93030893D01*
X155096387Y-93225000D01*
X155603613Y-93225000D01*
X156072230Y-93030893D01*
X156430893Y-92672230D01*
X156620000Y-92215684D01*
X156809107Y-92672230D01*
X157167770Y-93030893D01*
X157636387Y-93225000D01*
X158143613Y-93225000D01*
X158612230Y-93030893D01*
X158970893Y-92672230D01*
X159160000Y-92215684D01*
X159349107Y-92672230D01*
X159707770Y-93030893D01*
X160176387Y-93225000D01*
X160683613Y-93225000D01*
X161152230Y-93030893D01*
X161510893Y-92672230D01*
X161700000Y-92215684D01*
X161889107Y-92672230D01*
X162247770Y-93030893D01*
X162716387Y-93225000D01*
X163223613Y-93225000D01*
X163692230Y-93030893D01*
X164050893Y-92672230D01*
X164240000Y-92215684D01*
X164429107Y-92672230D01*
X164787770Y-93030893D01*
X165256387Y-93225000D01*
X165763613Y-93225000D01*
X166232230Y-93030893D01*
X166590893Y-92672230D01*
X166785000Y-92203613D01*
X166785000Y-91696387D01*
X166590893Y-91227770D01*
X166232230Y-90869107D01*
X165763613Y-90675000D01*
X165256387Y-90675000D01*
X164787770Y-90869107D01*
X164429107Y-91227770D01*
X164240000Y-91684316D01*
X164050893Y-91227770D01*
X163692230Y-90869107D01*
X163223613Y-90675000D01*
X162716387Y-90675000D01*
X162247770Y-90869107D01*
X161889107Y-91227770D01*
X161700000Y-91684316D01*
X161510893Y-91227770D01*
X161152230Y-90869107D01*
X160683613Y-90675000D01*
X160176387Y-90675000D01*
X159707770Y-90869107D01*
X159349107Y-91227770D01*
X159160000Y-91684316D01*
X158970893Y-91227770D01*
X158612230Y-90869107D01*
X158143613Y-90675000D01*
X157636387Y-90675000D01*
X157167770Y-90869107D01*
X156809107Y-91227770D01*
X156620000Y-91684316D01*
X156430893Y-91227770D01*
X156072230Y-90869107D01*
X155603613Y-90675000D01*
X155096387Y-90675000D01*
X154627770Y-90869107D01*
X154269107Y-91227770D01*
X154075000Y-91696387D01*
X154075000Y-91742131D01*
X154067965Y-91622175D01*
X153931323Y-91292292D01*
X153701761Y-91237844D01*
X152989605Y-91950000D01*
X152630395Y-91950000D01*
X151918239Y-91237844D01*
X151688677Y-91292292D01*
X151534642Y-91736026D01*
X151527965Y-91622175D01*
X151391323Y-91292292D01*
X151161761Y-91237844D01*
X150449605Y-91950000D01*
X150090395Y-91950000D01*
X149378239Y-91237844D01*
X149148677Y-91292292D01*
X149005000Y-91706188D01*
X149005000Y-91696387D01*
X148810893Y-91227770D01*
X148641362Y-91058239D01*
X149557844Y-91058239D01*
X150270000Y-91770395D01*
X150982156Y-91058239D01*
X152097844Y-91058239D01*
X152810000Y-91770395D01*
X153522156Y-91058239D01*
X153467708Y-90828677D01*
X152988532Y-90662339D01*
X152482175Y-90692035D01*
X152152292Y-90828677D01*
X152097844Y-91058239D01*
X150982156Y-91058239D01*
X150927708Y-90828677D01*
X150448532Y-90662339D01*
X149942175Y-90692035D01*
X149612292Y-90828677D01*
X149557844Y-91058239D01*
X148641362Y-91058239D01*
X148452230Y-90869107D01*
X147983613Y-90675000D01*
X147476387Y-90675000D01*
X147007770Y-90869107D01*
X146649107Y-91227770D01*
X146460000Y-91684316D01*
X146270893Y-91227770D01*
X145912230Y-90869107D01*
X145443613Y-90675000D01*
X144936387Y-90675000D01*
X144467770Y-90869107D01*
X144109107Y-91227770D01*
X143920000Y-91684316D01*
X143730893Y-91227770D01*
X143372230Y-90869107D01*
X142903613Y-90675000D01*
X142396387Y-90675000D01*
X141927770Y-90869107D01*
X141569107Y-91227770D01*
X141380000Y-91684316D01*
X141190893Y-91227770D01*
X141018962Y-91055839D01*
X142484473Y-89590329D01*
X142547929Y-89547929D01*
X142715904Y-89296537D01*
X142760000Y-89074852D01*
X142760000Y-89074848D01*
X142774888Y-89000001D01*
X142760000Y-88925154D01*
X142760000Y-80703711D01*
X142877431Y-80586280D01*
X143035000Y-80205874D01*
X143035000Y-79794126D01*
X142877431Y-79413720D01*
X142586280Y-79122569D01*
X142290372Y-79000000D01*
X142586280Y-78877431D01*
X142877431Y-78586280D01*
X143035000Y-78205874D01*
X143035000Y-77794126D01*
X142877431Y-77413720D01*
X142586280Y-77122569D01*
X142290372Y-77000000D01*
X142586280Y-76877431D01*
X142877431Y-76586280D01*
X143035000Y-76205874D01*
X143035000Y-76039801D01*
X144615000Y-74459802D01*
X144615000Y-79300147D01*
X144600111Y-79374999D01*
X144615000Y-79449851D01*
X144659096Y-79671536D01*
X144827071Y-79922928D01*
X144890527Y-79965328D01*
X144965000Y-80039801D01*
X144965000Y-80205874D01*
X145122569Y-80586280D01*
X145413720Y-80877431D01*
X145794126Y-81035000D01*
X146205874Y-81035000D01*
X146586280Y-80877431D01*
X146877431Y-80586280D01*
X147035000Y-80205874D01*
X147035000Y-79794126D01*
X146877431Y-79413720D01*
X146586280Y-79122569D01*
X146205874Y-78965000D01*
X146134999Y-78965000D01*
X146134999Y-78209800D01*
X148409670Y-80484472D01*
X148452071Y-80547929D01*
X148515527Y-80590329D01*
X148703462Y-80715904D01*
X148751605Y-80725480D01*
X148925148Y-80760000D01*
X148925152Y-80760000D01*
X149000000Y-80774888D01*
X149074848Y-80760000D01*
X150979135Y-80760000D01*
X150965000Y-80794126D01*
X150965000Y-80960197D01*
X147888753Y-84036446D01*
X146907265Y-84036446D01*
X146789834Y-83919015D01*
X146409428Y-83761446D01*
X145997680Y-83761446D01*
X145617274Y-83919015D01*
X145326123Y-84210166D01*
X145205010Y-84502560D01*
X144150000Y-84502560D01*
X143902235Y-84551843D01*
X143692191Y-84692191D01*
X143551843Y-84902235D01*
X143502560Y-85150000D01*
X143502560Y-86850000D01*
X143551843Y-87097765D01*
X143692191Y-87307809D01*
X143902235Y-87448157D01*
X144150000Y-87497440D01*
X145850000Y-87497440D01*
X146097765Y-87448157D01*
X146307809Y-87307809D01*
X146448157Y-87097765D01*
X146457184Y-87052381D01*
X146469375Y-87070625D01*
X146960582Y-87398839D01*
X147393744Y-87485000D01*
X147686256Y-87485000D01*
X148119418Y-87398839D01*
X148610625Y-87070625D01*
X148823843Y-86751522D01*
X148884817Y-86881358D01*
X149313076Y-87271645D01*
X149723110Y-87441476D01*
X149953000Y-87320155D01*
X149953000Y-86127000D01*
X149933000Y-86127000D01*
X149933000Y-85873000D01*
X149953000Y-85873000D01*
X149953000Y-84679845D01*
X149723110Y-84558524D01*
X149370040Y-84704761D01*
X152039803Y-82035000D01*
X152205874Y-82035000D01*
X152586280Y-81877431D01*
X152694455Y-81769256D01*
X152965000Y-82039802D01*
X152965000Y-82205874D01*
X153122569Y-82586280D01*
X153413720Y-82877431D01*
X153794126Y-83035000D01*
X154205874Y-83035000D01*
X154586280Y-82877431D01*
X154694454Y-82769257D01*
X156764371Y-84839174D01*
X156629375Y-84929375D01*
X156430000Y-85227761D01*
X156230625Y-84929375D01*
X155739418Y-84601161D01*
X155306256Y-84515000D01*
X155013744Y-84515000D01*
X154580582Y-84601161D01*
X154089375Y-84929375D01*
X153890000Y-85227761D01*
X153690625Y-84929375D01*
X153199418Y-84601161D01*
X152766256Y-84515000D01*
X152473744Y-84515000D01*
X152040582Y-84601161D01*
X151549375Y-84929375D01*
X151336157Y-85248478D01*
X151275183Y-85118642D01*
X150846924Y-84728355D01*
X150436890Y-84558524D01*
X150207000Y-84679845D01*
X150207000Y-85873000D01*
X150227000Y-85873000D01*
X150227000Y-86127000D01*
X150207000Y-86127000D01*
X150207000Y-87320155D01*
X150436890Y-87441476D01*
X150846924Y-87271645D01*
X151275183Y-86881358D01*
X151336157Y-86751522D01*
X151549375Y-87070625D01*
X152040582Y-87398839D01*
X152473744Y-87485000D01*
X152766256Y-87485000D01*
X153199418Y-87398839D01*
X153690625Y-87070625D01*
X153890000Y-86772239D01*
X154089375Y-87070625D01*
X154580582Y-87398839D01*
X155013744Y-87485000D01*
X155306256Y-87485000D01*
X155739418Y-87398839D01*
X156230625Y-87070625D01*
X156430000Y-86772239D01*
X156629375Y-87070625D01*
X157120582Y-87398839D01*
X157553744Y-87485000D01*
X157846256Y-87485000D01*
X158279418Y-87398839D01*
X158770625Y-87070625D01*
X159098839Y-86579418D01*
X159214092Y-86000000D01*
X159098839Y-85420582D01*
X158770625Y-84929375D01*
X158469310Y-84728043D01*
X158474888Y-84699999D01*
X158460000Y-84625152D01*
X158460000Y-84625148D01*
X158415904Y-84403463D01*
X158336529Y-84284670D01*
X158290329Y-84215526D01*
X158290327Y-84215524D01*
X158247929Y-84152071D01*
X158184476Y-84109673D01*
X151035000Y-76960199D01*
X151035000Y-76794126D01*
X151020865Y-76760000D01*
X154680197Y-76760000D01*
X156429670Y-78509474D01*
X156472070Y-78572930D01*
X156723462Y-78740905D01*
X156945147Y-78785001D01*
X156945152Y-78785001D01*
X157019999Y-78799889D01*
X157094846Y-78785001D01*
X165665026Y-78785001D01*
X165601161Y-78880582D01*
X165485908Y-79460000D01*
X165601161Y-80039418D01*
X165929375Y-80530625D01*
X165947619Y-80542816D01*
X165902235Y-80551843D01*
X165692191Y-80692191D01*
X165551843Y-80902235D01*
X165502560Y-81150000D01*
X165502560Y-82850000D01*
X165551843Y-83097765D01*
X165692191Y-83307809D01*
X165902235Y-83448157D01*
X166150000Y-83497440D01*
X167850000Y-83497440D01*
X168097765Y-83448157D01*
X168307809Y-83307809D01*
X168448157Y-83097765D01*
X168497440Y-82850000D01*
X168497440Y-82648483D01*
X168647929Y-82547929D01*
X168690331Y-82484470D01*
X169265001Y-81909801D01*
X169265000Y-132265000D01*
X110735000Y-132265000D01*
X110735000Y-129796387D01*
X131215000Y-129796387D01*
X131215000Y-130303613D01*
X131409107Y-130772230D01*
X131767770Y-131130893D01*
X132236387Y-131325000D01*
X132743613Y-131325000D01*
X133212230Y-131130893D01*
X133570893Y-130772230D01*
X133760000Y-130315684D01*
X133949107Y-130772230D01*
X134307770Y-131130893D01*
X134776387Y-131325000D01*
X135283613Y-131325000D01*
X135752230Y-131130893D01*
X136110893Y-130772230D01*
X136305000Y-130303613D01*
X136305000Y-129796387D01*
X161695000Y-129796387D01*
X161695000Y-130303613D01*
X161889107Y-130772230D01*
X162247770Y-131130893D01*
X162716387Y-131325000D01*
X163223613Y-131325000D01*
X163692230Y-131130893D01*
X164050893Y-130772230D01*
X164240000Y-130315684D01*
X164429107Y-130772230D01*
X164787770Y-131130893D01*
X165256387Y-131325000D01*
X165763613Y-131325000D01*
X166232230Y-131130893D01*
X166590893Y-130772230D01*
X166785000Y-130303613D01*
X166785000Y-129796387D01*
X166590893Y-129327770D01*
X166232230Y-128969107D01*
X165763613Y-128775000D01*
X165256387Y-128775000D01*
X164787770Y-128969107D01*
X164429107Y-129327770D01*
X164240000Y-129784316D01*
X164050893Y-129327770D01*
X163692230Y-128969107D01*
X163223613Y-128775000D01*
X162716387Y-128775000D01*
X162247770Y-128969107D01*
X161889107Y-129327770D01*
X161695000Y-129796387D01*
X136305000Y-129796387D01*
X136110893Y-129327770D01*
X135752230Y-128969107D01*
X135283613Y-128775000D01*
X134776387Y-128775000D01*
X134307770Y-128969107D01*
X133949107Y-129327770D01*
X133760000Y-129784316D01*
X133570893Y-129327770D01*
X133212230Y-128969107D01*
X132743613Y-128775000D01*
X132236387Y-128775000D01*
X131767770Y-128969107D01*
X131409107Y-129327770D01*
X131215000Y-129796387D01*
X110735000Y-129796387D01*
X110735000Y-113699779D01*
X117890001Y-113699779D01*
X117890001Y-114350223D01*
X118138915Y-114951154D01*
X118598848Y-115411087D01*
X119199779Y-115660001D01*
X119850223Y-115660001D01*
X120451154Y-115411087D01*
X120911087Y-114951154D01*
X121160001Y-114350223D01*
X121160001Y-113699779D01*
X124390001Y-113699779D01*
X124390001Y-114350223D01*
X124638915Y-114951154D01*
X125098848Y-115411087D01*
X125699779Y-115660001D01*
X126350223Y-115660001D01*
X126951154Y-115411087D01*
X127411087Y-114951154D01*
X127660001Y-114350223D01*
X127660001Y-113699779D01*
X127411087Y-113098848D01*
X126951154Y-112638915D01*
X126350223Y-112390001D01*
X125699779Y-112390001D01*
X125098848Y-112638915D01*
X124638915Y-113098848D01*
X124390001Y-113699779D01*
X121160001Y-113699779D01*
X120911087Y-113098848D01*
X120451154Y-112638915D01*
X119850223Y-112390001D01*
X119199779Y-112390001D01*
X118598848Y-112638915D01*
X118138915Y-113098848D01*
X117890001Y-113699779D01*
X110735000Y-113699779D01*
X110735000Y-110677533D01*
X118552074Y-110677533D01*
X118650737Y-110944388D01*
X119260462Y-111170909D01*
X119910461Y-111146857D01*
X120399265Y-110944388D01*
X120497928Y-110677533D01*
X125052074Y-110677533D01*
X125150737Y-110944388D01*
X125760462Y-111170909D01*
X126410461Y-111146857D01*
X126899265Y-110944388D01*
X126997928Y-110677533D01*
X126025001Y-109704606D01*
X125052074Y-110677533D01*
X120497928Y-110677533D01*
X119525001Y-109704606D01*
X118552074Y-110677533D01*
X110735000Y-110677533D01*
X110735000Y-109260462D01*
X117879093Y-109260462D01*
X117903145Y-109910461D01*
X118105614Y-110399265D01*
X118372469Y-110497928D01*
X119345396Y-109525001D01*
X119704606Y-109525001D01*
X120677533Y-110497928D01*
X120944388Y-110399265D01*
X121170909Y-109789540D01*
X121151332Y-109260462D01*
X124379093Y-109260462D01*
X124403145Y-109910461D01*
X124605614Y-110399265D01*
X124872469Y-110497928D01*
X125845396Y-109525001D01*
X126204606Y-109525001D01*
X127177533Y-110497928D01*
X127444388Y-110399265D01*
X127670909Y-109789540D01*
X127646857Y-109139541D01*
X127444388Y-108650737D01*
X127177533Y-108552074D01*
X126204606Y-109525001D01*
X125845396Y-109525001D01*
X124872469Y-108552074D01*
X124605614Y-108650737D01*
X124379093Y-109260462D01*
X121151332Y-109260462D01*
X121146857Y-109139541D01*
X120944388Y-108650737D01*
X120677533Y-108552074D01*
X119704606Y-109525001D01*
X119345396Y-109525001D01*
X118372469Y-108552074D01*
X118105614Y-108650737D01*
X117879093Y-109260462D01*
X110735000Y-109260462D01*
X110735000Y-108372469D01*
X118552074Y-108372469D01*
X119525001Y-109345396D01*
X120497928Y-108372469D01*
X125052074Y-108372469D01*
X126025001Y-109345396D01*
X126997928Y-108372469D01*
X126899265Y-108105614D01*
X126289540Y-107879093D01*
X125639541Y-107903145D01*
X125150737Y-108105614D01*
X125052074Y-108372469D01*
X120497928Y-108372469D01*
X120399265Y-108105614D01*
X119789540Y-107879093D01*
X119139541Y-107903145D01*
X118650737Y-108105614D01*
X118552074Y-108372469D01*
X110735000Y-108372469D01*
X110735000Y-106152532D01*
X118527073Y-106152532D01*
X118625736Y-106419387D01*
X119235461Y-106645908D01*
X119885460Y-106621856D01*
X120374264Y-106419387D01*
X120472927Y-106152532D01*
X125027073Y-106152532D01*
X125125736Y-106419387D01*
X125735461Y-106645908D01*
X126385460Y-106621856D01*
X126874264Y-106419387D01*
X126972927Y-106152532D01*
X126000000Y-105179605D01*
X125027073Y-106152532D01*
X120472927Y-106152532D01*
X119500000Y-105179605D01*
X118527073Y-106152532D01*
X110735000Y-106152532D01*
X110735000Y-104735461D01*
X117854092Y-104735461D01*
X117878144Y-105385460D01*
X118080613Y-105874264D01*
X118347468Y-105972927D01*
X119320395Y-105000000D01*
X119679605Y-105000000D01*
X120652532Y-105972927D01*
X120919387Y-105874264D01*
X121145908Y-105264539D01*
X121126331Y-104735461D01*
X124354092Y-104735461D01*
X124378144Y-105385460D01*
X124580613Y-105874264D01*
X124847468Y-105972927D01*
X125820395Y-105000000D01*
X126179605Y-105000000D01*
X127152532Y-105972927D01*
X127419387Y-105874264D01*
X127645908Y-105264539D01*
X127621856Y-104614540D01*
X127419387Y-104125736D01*
X127152532Y-104027073D01*
X126179605Y-105000000D01*
X125820395Y-105000000D01*
X124847468Y-104027073D01*
X124580613Y-104125736D01*
X124354092Y-104735461D01*
X121126331Y-104735461D01*
X121121856Y-104614540D01*
X120919387Y-104125736D01*
X120652532Y-104027073D01*
X119679605Y-105000000D01*
X119320395Y-105000000D01*
X118347468Y-104027073D01*
X118080613Y-104125736D01*
X117854092Y-104735461D01*
X110735000Y-104735461D01*
X110735000Y-103847468D01*
X118527073Y-103847468D01*
X119500000Y-104820395D01*
X120472927Y-103847468D01*
X125027073Y-103847468D01*
X126000000Y-104820395D01*
X126972927Y-103847468D01*
X126874264Y-103580613D01*
X126264539Y-103354092D01*
X125614540Y-103378144D01*
X125125736Y-103580613D01*
X125027073Y-103847468D01*
X120472927Y-103847468D01*
X120374264Y-103580613D01*
X119764539Y-103354092D01*
X119114540Y-103378144D01*
X118625736Y-103580613D01*
X118527073Y-103847468D01*
X110735000Y-103847468D01*
X110735000Y-100174778D01*
X117865000Y-100174778D01*
X117865000Y-100825222D01*
X118113914Y-101426153D01*
X118573847Y-101886086D01*
X119174778Y-102135000D01*
X119825222Y-102135000D01*
X120426153Y-101886086D01*
X120886086Y-101426153D01*
X121135000Y-100825222D01*
X121135000Y-100174778D01*
X120886086Y-99573847D01*
X120426153Y-99113914D01*
X119825222Y-98865000D01*
X119174778Y-98865000D01*
X118573847Y-99113914D01*
X118113914Y-99573847D01*
X117865000Y-100174778D01*
X110735000Y-100174778D01*
X110735000Y-57730000D01*
X133592275Y-57730000D01*
X133682157Y-58181867D01*
X133651843Y-58227235D01*
X133602560Y-58475000D01*
X133602560Y-59525000D01*
X133651843Y-59772765D01*
X133792191Y-59982809D01*
X134002235Y-60123157D01*
X134250000Y-60172440D01*
X135750000Y-60172440D01*
X135997765Y-60123157D01*
X136207809Y-59982809D01*
X136348157Y-59772765D01*
X136397440Y-59525000D01*
X136397440Y-58475000D01*
X136348157Y-58227235D01*
X136317843Y-58181867D01*
X136407725Y-57730000D01*
X136317695Y-57277391D01*
X136265984Y-57200000D01*
X153552560Y-57200000D01*
X153552560Y-58800000D01*
X153601843Y-59047765D01*
X153741995Y-59257516D01*
X153553035Y-59783223D01*
X153580222Y-60353454D01*
X153746136Y-60754005D01*
X153992255Y-60828139D01*
X154820395Y-60000000D01*
X154806252Y-59985858D01*
X154985858Y-59806253D01*
X155000000Y-59820395D01*
X155014143Y-59806253D01*
X155193748Y-59985858D01*
X155179605Y-60000000D01*
X156007745Y-60828139D01*
X156253864Y-60754005D01*
X156446965Y-60216777D01*
X156419778Y-59646546D01*
X156258395Y-59256933D01*
X156398157Y-59047765D01*
X156447440Y-58800000D01*
X156447440Y-57794126D01*
X157965000Y-57794126D01*
X157965000Y-58205874D01*
X158122569Y-58586280D01*
X158413720Y-58877431D01*
X158794126Y-59035000D01*
X159205874Y-59035000D01*
X159586280Y-58877431D01*
X159877431Y-58586280D01*
X160035000Y-58205874D01*
X160035000Y-57794126D01*
X159877431Y-57413720D01*
X159586280Y-57122569D01*
X159205874Y-56965000D01*
X158794126Y-56965000D01*
X158413720Y-57122569D01*
X158122569Y-57413720D01*
X157965000Y-57794126D01*
X156447440Y-57794126D01*
X156447440Y-57200000D01*
X156398157Y-56952235D01*
X156257809Y-56742191D01*
X156047765Y-56601843D01*
X155800000Y-56552560D01*
X154200000Y-56552560D01*
X153952235Y-56601843D01*
X153742191Y-56742191D01*
X153601843Y-56952235D01*
X153552560Y-57200000D01*
X136265984Y-57200000D01*
X136189146Y-57085004D01*
X136335266Y-56827336D01*
X136343964Y-56765810D01*
X136218163Y-56587000D01*
X135424710Y-56587000D01*
X135339246Y-56570000D01*
X134660754Y-56570000D01*
X134575290Y-56587000D01*
X133781837Y-56587000D01*
X133656036Y-56765810D01*
X133664734Y-56827336D01*
X133810854Y-57085004D01*
X133682305Y-57277391D01*
X133592275Y-57730000D01*
X110735000Y-57730000D01*
X110735000Y-56154190D01*
X133656036Y-56154190D01*
X133781837Y-56333000D01*
X134873000Y-56333000D01*
X134873000Y-55453407D01*
X135127000Y-55453407D01*
X135127000Y-56333000D01*
X136218163Y-56333000D01*
X136343964Y-56154190D01*
X136335266Y-56092664D01*
X136110179Y-55695745D01*
X135750331Y-55415177D01*
X135310506Y-55293674D01*
X135127000Y-55453407D01*
X134873000Y-55453407D01*
X134689494Y-55293674D01*
X134249669Y-55415177D01*
X133889821Y-55695745D01*
X133664734Y-56092664D01*
X133656036Y-56154190D01*
X110735000Y-56154190D01*
X110735000Y-50735000D01*
X121943383Y-50735000D01*
X121865000Y-50924234D01*
G36*
X158193748Y-74985858D02*
X158179605Y-75000000D01*
X158193748Y-75014142D01*
X158014143Y-75193748D01*
X158000000Y-75179605D01*
X157985858Y-75193748D01*
X157806252Y-75014142D01*
X157820395Y-75000000D01*
X157806253Y-74985858D01*
X157985858Y-74806253D01*
X158000000Y-74820395D01*
X158014143Y-74806253D01*
X158193748Y-74985858D01*
X158193748Y-74985858D01*
G37*
X158193748Y-74985858D02*
X158179605Y-75000000D01*
X158193748Y-75014142D01*
X158014143Y-75193748D01*
X158000000Y-75179605D01*
X157985858Y-75193748D01*
X157806252Y-75014142D01*
X157820395Y-75000000D01*
X157806253Y-74985858D01*
X157985858Y-74806253D01*
X158000000Y-74820395D01*
X158014143Y-74806253D01*
X158193748Y-74985858D01*
G04 #@! TD*
M02*
