M48
;DRILL file {KiCad (5.0.2)-1} date 15/02/2019 14:43:33
;FORMAT={-:-/ absolute / metric / decimal}
FMAT,2
METRIC,TZ
T1C0.300
T2C0.750
T3C0.780
T4C0.800
T5C0.900
T6C1.000
T7C1.020
T8C1.100
%
G90
G05
T1
X112.Y-89.
X126.Y-98.
X133.Y-73.
X133.Y-79.
X133.Y-81.
X133.Y-90.
X134.Y-84.
X138.Y-55.
X138.Y-89.
X139.Y-59.
X139.Y-72.
X139.Y-77.
X141.Y-70.
X141.Y-88.
X142.Y-76.
X142.Y-78.
X142.Y-80.
X145.Y-59.
X145.981Y-83.924
X146.Y-69.
X146.Y-80.
X146.204Y-84.796
X147.Y-74.
X147.Y-75.
X148.Y-76.
X149.Y-67.
X150.Y-72.
X150.Y-77.
X150.Y-89.
X152.Y-67.
X152.Y-81.
X154.Y-82.
X154.44Y-67.94
X157.Y-69.
X159.Y-58.
X162.Y-51.
X168.Y-62.
T2
X135.Y-56.46
X135.Y-57.73
X135.Y-59.
X159.46Y-66.
X160.73Y-66.
X162.Y-66.
T3
X132.49Y-91.95
X132.49Y-130.05
X135.03Y-91.95
X135.03Y-130.05
X137.57Y-91.95
X140.11Y-91.95
X142.65Y-91.95
X145.19Y-91.95
X147.73Y-91.95
X150.27Y-91.95
X152.81Y-91.95
X155.35Y-91.95
X157.89Y-91.95
X160.43Y-91.95
X162.97Y-91.95
X162.97Y-130.05
X165.51Y-91.95
X165.51Y-130.05
T4
X155.Y-58.
X155.Y-60.
X158.Y-75.
X158.Y-77.
T5
X135.Y-86.
X137.54Y-86.
X130.Y-86.
X132.54Y-86.
X159.46Y-63.
X162.Y-63.
T6
X167.Y-69.3
X167.Y-71.84
X167.Y-74.38
X167.Y-76.92
X167.Y-79.46
X167.Y-82.
X145.Y-86.
X147.54Y-86.
X150.08Y-86.
X152.62Y-86.
X155.16Y-86.
X157.7Y-86.
T7
X155.Y-53.
X157.54Y-53.
X160.08Y-53.
X162.62Y-53.
T8
X119.5Y-100.5
X119.5Y-105.
X126.Y-100.5
X126.Y-105.
X119.525Y-109.525
X119.525Y-114.025
X126.025Y-109.525
X126.025Y-114.025
T0
M30
